<?xml version="1.0" standalone="no"?>
<!DOCTYPE svg PUBLIC "-//W3C//DTD SVG 1.1//EN" "http://www.w3.org/Graphics/SVG/1.1/DTD/svg11.dtd" >
<svg xmlns="http://www.w3.org/2000/svg">
<metadata>Generated by IcoMoon</metadata>
<defs>
<font id="icomoon" horiz-adv-x="1024">
<font-face units-per-em="1024" ascent="960" descent="-64" />
<missing-glyph horiz-adv-x="1024" />
<glyph unicode="&#x20;" horiz-adv-x="512" d="" />
<glyph unicode="&#xe900;" glyph-name="action" d="M102.4 550.4c56.554 0 102.4-45.846 102.4-102.4s-45.846-102.4-102.4-102.4c-56.554 0-102.4 45.846-102.4 102.4v0c0 56.554 45.846 102.4 102.4 102.4v0zM512 550.4c56.554 0 102.4-45.846 102.4-102.4s-45.846-102.4-102.4-102.4c-56.554 0-102.4 45.846-102.4 102.4v0c0 56.554 45.846 102.4 102.4 102.4v0zM921.6 550.4c56.554 0 102.4-45.846 102.4-102.4s-45.846-102.4-102.4-102.4c-56.554 0-102.4 45.846-102.4 102.4v0c0 56.554 45.846 102.4 102.4 102.4v0z" />
<glyph unicode="&#xe901;" glyph-name="add-product" d="M871.67 704h-99.84c0.013 0.944 0.020 2.058 0.020 3.175 0 138.505-111.366 250.999-249.438 252.824l-0.172 0.002c-138.271-1.792-249.671-114.299-249.671-252.826 0-1.116 0.007-2.23 0.022-3.343l-0.002 0.169h-99.84c-27.636-0.436-49.872-22.942-49.872-50.641 0-0.196 0.001-0.393 0.003-0.589v0.030-665.6c-0.002-0.166-0.003-0.362-0.003-0.559 0-27.699 22.236-50.205 49.831-50.641l0.041-0.001h698.921c27.663 0.402 49.933 22.921 49.933 50.642 0 0.196-0.001 0.392-0.003 0.588v-0.030 665.6c0.002 0.166 0.003 0.362 0.003 0.558 0 27.721-22.27 50.24-49.895 50.642h-0.038zM522.24 857.6c82.95-1.068 149.783-68.561 149.783-151.663 0-0.681-0.004-1.361-0.013-2.040l0.001 0.103h-299.561c-0.008 0.576-0.012 1.256-0.012 1.937 0 83.11 66.844 150.607 149.703 151.662l0.1 0.001zM721.203 190.812h-104.755v-107.356c0.020-0.717 0.031-1.561 0.031-2.407 0-52.109-42.243-94.351-94.351-94.351s-94.351 42.243-94.351 94.351c0 0.847 0.011 1.691 0.033 2.532l-0.003-0.124v107.315h-104.55c-52.603 1.116-94.818 44.023-94.818 96.788s42.215 95.672 94.714 96.787l0.104 0.002h104.632v107.336c-0.020 0.717-0.031 1.561-0.031 2.407 0 52.109 42.243 94.351 94.351 94.351s94.351-42.243 94.351-94.351c0-0.847-0.011-1.691-0.033-2.532l0.003 0.124v-107.295h104.632c52.603-1.116 94.818-44.023 94.818-96.788s-42.215-95.672-94.714-96.787l-0.104-0.002zM721.203 318.996h-168.346v172.646c0.007 0.236 0.010 0.513 0.010 0.792 0 16.91-13.708 30.618-30.618 30.618s-30.618-13.708-30.618-30.618c0-0.278 0.004-0.556 0.011-0.833l-0.001 0.041v-172.667h-168.346c-16.991-0.448-30.594-14.328-30.594-31.386s13.603-30.938 30.553-31.385l0.041-0.001h168.223v-172.646c-0.007-0.236-0.010-0.513-0.010-0.792 0-16.91 13.708-30.618 30.618-30.618s30.618 13.708 30.618 30.618c0 0.278-0.004 0.556-0.011 0.833l0.001-0.041v172.646h168.346c17.009 0.425 30.636 14.314 30.636 31.387 0 17.043-13.581 30.915-30.511 31.384l-0.043 0.001z" />
<glyph unicode="&#xe902;" glyph-name="add" d="M430.080 529.92v430.080h163.84v-430.080h430.080v-163.84h-430.080v-430.080h-163.84v430.080h-430.080s0 163.84 0 163.84h430.080z" />
<glyph unicode="&#xe903;" glyph-name="affiliate" d="M528.507 4.465h23.020l-39.526-68.465-39.526 68.444h22.999v129.761h33.034v-129.741zM837.284 146.063l-91.812 91.73-23.347-23.347 91.75-91.73-16.261-16.261 76.349-20.48-20.48 76.349zM1024 448l-68.465 39.526v-22.999h-129.72v-33.034h129.741v-23.020zM745.472 658.227l91.75 91.73 16.261-16.282 20.48 76.349-76.349-20.48 16.261-16.261-91.75-91.73zM495.493 761.815h33.034v129.741h22.999l-39.526 68.444-39.526-68.444h22.999v-129.741zM186.716 749.957l91.75-91.73 23.347 23.347-91.75 91.73 16.261 16.282-76.349 20.48 20.48-76.349zM198.205 431.493v33.034h-129.741v22.999l-68.465-39.526 68.465-39.526v23.020h129.72zM278.528 237.773l-91.75-91.73-16.364 16.261-20.48-76.329 76.349 20.48-16.261 16.261 91.75 91.73zM528.609 348.897c18.235 0.023 33.011 14.799 33.034 33.032v16.529c-0.012 18.24-14.795 33.023-33.033 33.034h-0.001v-82.575zM462.541 514.068v-16.507c0.012-18.24 14.795-33.023 33.033-33.034h0.001v82.575c-0.012 0-0.027 0-0.041 0-18.253 0-33.052-14.785-33.075-33.032v-0.002zM776.192 448c0-145.909-118.283-264.192-264.192-264.192s-264.192 118.283-264.192 264.192c0 145.909 118.283 264.192 264.192 264.192v0c145.909 0 264.192-118.283 264.192-264.192v0zM726.651 448c0 118.582-96.13 214.712-214.712 214.712s-214.712-96.13-214.712-214.712c0-118.582 96.13-214.712 214.712-214.712 0.022 0 0.043 0 0.065 0h-0.003c118.507 0.186 214.526 96.205 214.712 214.694v0.018zM710.144 448c-0.012-109.446-88.738-198.164-198.185-198.164-109.455 0-198.185 88.73-198.185 198.185s88.73 198.185 198.185 198.185c0.014 0 0.029 0 0.043 0h-0.002c109.41-0.128 198.068-88.794 198.185-198.194v-0.011zM528.466 464.527v82.575c18.24-0.012 33.023-14.795 33.034-33.033v-0.001h33.034c-0.035 36.475-29.594 66.034-66.065 66.068h-0.003v33.034h-32.973v-33.034c-36.475-0.035-66.034-29.594-66.068-66.065v-16.51c0.035-36.475 29.594-66.034 66.065-66.068h0.003v-82.575c-18.235 0.023-33.011 14.799-33.034 33.032v0.002h-33.034c0.035-36.475 29.594-66.034 66.065-66.068h0.003v-33.034h33.034v33.034c36.475 0.035 66.034 29.594 66.068 66.065v16.51c-0.035 36.482-29.606 66.045-66.087 66.068h-0.002z" />
<glyph unicode="&#xe904;" glyph-name="become-premium" d="M512 939.52l168.735-308.92 343.265-66.58-238.961-257.475 43.356-350.065-316.396 149.832-316.396-149.832 43.356 350.044-238.961 257.495 343.183 66.56 168.817 308.941z" />
<glyph unicode="&#xe905;" glyph-name="bg" d="M718.848 99.84h305.152v675.84h-1024v-674.57h718.848v-1.27zM40.96 140.8v593.92h942.080v-593.92h-942.080zM921.6 386.56l-245.76 40.96c-3.707 1.27 1.229-5.1 0 0l-40.96 245.76h-532.48v-471.040h819.2v184.32zM921.6 427.52l-225.28 245.76 41.083-193.434z" />
<glyph unicode="&#xe906;" glyph-name="bold" d="M537.498-64.655q160.87 0 252.211 74.957t91.341 219.136c0.034 1.581 0.053 3.444 0.053 5.312 0 56.83-17.876 109.485-48.311 152.648l0.56-0.837c-32.214 44.675-79.819 76.515-134.912 87.82l-1.424 0.244c44.248 16.477 80.906 44.732 107.245 80.97l0.459 0.663c24.343 33.877 38.929 76.19 38.929 121.91 0 0.939-0.006 1.876-0.018 2.812l0.001-0.142q0 139.264-92.713 209.388t-257.741 69.775h-329.933v-1024.655h374.252zM555.93 401.265q82.473 0 121.344-44.954c24.494-31.357 39.275-71.338 39.275-114.77 0-4.1-0.132-8.169-0.391-12.203l0.028 0.55c0.202-2.881 0.317-6.243 0.317-9.632 0-42.319-17.917-80.453-46.578-107.231l-0.084-0.078c-32.653-25.45-74.262-40.805-119.457-40.805-4.498 0-8.96 0.152-13.381 0.451l0.599-0.032h-208.691v328.704h227zM328.909 822.784h164.291q90.665 0 137.708-36.864c29.139-24.88 47.495-61.65 47.495-102.707 0-3.611-0.142-7.189-0.421-10.728l0.030 0.468c0.139-2.263 0.218-4.907 0.218-7.571 0-39.408-17.3-74.776-44.719-98.923l-0.145-0.125c-30.51-23.671-69.341-37.947-111.507-37.947-3.583 0-7.142 0.103-10.674 0.306l0.489-0.022h-182.764v294.113z" />
<glyph unicode="&#xe907;" glyph-name="bonuses" d="M140.554 350.228h305.357v-414.085h-305.357v414.085zM598.569 350.228h305.336v-414.085h-305.336v414.085zM102.4 576.082h343.511v-188.211h-343.511v188.211zM598.569 576.082h343.511v-188.211h-343.511v188.211zM827.576 914.944c-80.957 79.749-170.373 44.831-251.331-35.021-30.342-34.75-50.128-79.418-53.958-128.565l-0.048-0.766c-3.87 49.908-23.641 94.575-54.191 129.596l0.226-0.265c-80.957 79.872-170.414 114.688-251.372 34.939s-45.486-168.079 35.492-247.91 269.844-53.248 269.844-53.248 188.928-26.624 269.885 53.248 116.449 168.12 35.451 247.992zM306.36 773.407c-52.163 51.466-26.972 79.872-26.972 79.872s28.774 24.801 80.937-26.644 107.93-159.744 107.93-159.744-109.711 55.050-161.894 106.516zM738.14 773.407c-52.183-51.466-161.915-106.496-161.915-106.496s55.767 108.216 107.93 159.744 80.957 26.624 80.957 26.624 25.211-28.447-26.952-79.872z" />
<glyph unicode="&#xe908;" glyph-name="business" d="M0 632.32v-696.32h1024v696.32h-1024zM327.68 816.64h368.64v-122.88h122.88v204.8c0 54.211 0 61.44-51.2 61.44h-512c-51.2 0-51.2-7.229-51.2-61.44v-204.8h122.88v122.88z" />
<glyph unicode="&#xe909;" glyph-name="center-text" d="M1024 120.32h-1024v-61.44h1024v61.44zM921.6 591.36h-778.24v-61.44h778.24v61.44zM1024 837.12h-1024v-61.44h1024v61.44zM860.16 386.56h-675.84v-61.44h675.84v61.44z" />
<glyph unicode="&#xe90a;" glyph-name="choosetemplate" d="M891.515 133.98l98.857 98.98-330.404 65.761 66.765-329.953 98.857 99.082 132.403-131.85 65.905 66.048zM327.68 960h696.32v-143.36h-696.32v143.36zM327.68 755.2h696.32v-143.36h-696.32v143.36zM327.68 529.92h696.32v-143.36h-696.32v143.36zM327.68 304.64h245.76v-368.64h-245.76v368.64zM0 960h266.24v-1024h-266.24v1024z" />
<glyph unicode="&#xe90b;" glyph-name="copy" d="M0-23.040c0-29.716 24.105-40.96 53.801-40.96h593.019c29.716 0 49.5 11.264 49.5 40.96v614.4c0 29.716-11.264 40.96-40.96 40.96h-614.4c-29.716 0-40.96-19.804-40.96-49.5v-605.86zM377.18 960c-29.716 0-49.5-10.998-49.5-40.96v-225.28h430.080v-430.080h225.28c29.757 0 40.96 19.804 40.96 49.5v592.998c0 29.725-24.097 53.821-53.821 53.821v0h-592.998z" />
<glyph unicode="&#xe90c;" glyph-name="create_funnel" d="M657.408 463.38h-245.76v-55.398h245.76v55.398zM610.304 130.97h-473.088v636.109h630.784v-474.010c6.946 4.642 15.362 7.62 24.433 8.185l0.143 0.007c0.349 0.010 0.758 0.016 1.17 0.016 11.552 0 22.005-4.704 29.548-12.302l0.002-0.002v671.027h-741.376v-884.429h534.528c-7.627 8.279-12.303 19.378-12.303 31.569 0 0.422 0.006 0.842 0.017 1.261l-0.001-0.062c-0.006 0.269-0.010 0.586-0.010 0.904 0 8.041 2.291 15.547 6.255 21.901l-0.102-0.175zM690.176 914.821c0.512 0.023 1.113 0.036 1.717 0.036 22.893 0 41.452-18.558 41.452-41.452 0-1.281-0.058-2.549-0.172-3.801l0.012 0.161c0.046-0.742 0.072-1.608 0.072-2.481 0-23.515-19.063-42.578-42.578-42.578-0.177 0-0.353 0.001-0.529 0.003h0.027c-0.627-0.033-1.361-0.051-2.099-0.051-23.753 0-43.008 19.255-43.008 43.008 0 0.738 0.019 1.472 0.055 2.202l-0.004-0.102c-0.033 0.627-0.051 1.361-0.051 2.099 0 23.753 19.255 43.008 43.008 43.008 0.738 0 1.472-0.019 2.202-0.055l-0.102 0.004zM516.096 914.821c0.512 0.023 1.113 0.036 1.717 0.036 22.893 0 41.452-18.558 41.452-41.452 0-1.281-0.058-2.549-0.172-3.801l0.012 0.161c0.102-1.091 0.16-2.359 0.16-3.64 0-22.893-18.558-41.452-41.452-41.452-0.604 0-1.204 0.013-1.802 0.038l0.085-0.003c-0.626-0.033-1.358-0.051-2.095-0.051-23.753 0-43.008 19.255-43.008 43.008 0 0.709 0.017 1.415 0.051 2.116l-0.004-0.099c-0.082 0.981-0.128 2.123-0.128 3.276 0 23.187 18.797 41.984 41.984 41.984 1.126 0 2.242-0.044 3.346-0.131l-0.146 0.009zM411.648 268.452h245.76v55.398h-245.76v-55.398zM245.76 268.452h110.592v192.881h-110.592v-192.881zM657.408 682.947h-411.648v-110.797h411.648v110.797zM933.888 137.134h-112.64v114.913c0 15.835-12.837 28.672-28.672 28.672s-28.672-12.837-28.672-28.672v-114.913h-112.64c-15.863 0-28.723-12.86-28.723-28.723s12.86-28.723 28.723-28.723v0h112.64v-115.016c0-15.835 12.837-28.672 28.672-28.672s28.672 12.837 28.672 28.672v114.995h112.64c15.869 0 28.733 12.864 28.733 28.733s-12.864 28.733-28.733 28.733v0z" />
<glyph unicode="&#xe90d;" glyph-name="cross" d="M1024.512 901.345l-59.392 59.392-453.12-453.345-453.1 453.386-59.392-59.392 453.1-453.386-453.12-453.325 59.392-59.392 453.12 453.325 453.079-453.366 59.392 59.392-453.079 453.366z" />
<glyph unicode="&#xe90e;" glyph-name="dashboard" d="M1024 469.996h-191.959v-513.352h-192.020v256.676h-256v-256.676h-192.020v513.352h-192l512 449.229z" />
<glyph unicode="&#xe90f;" glyph-name="delete" d="M798.72-64h-573.44v716.8h573.44v-716.8zM942.080 714.24h-860.16v163.84h307.2v81.92h245.76v-81.92h307.2l0.246-122.88z" />
<glyph unicode="&#xe910;" glyph-name="dot-list" d="M1024 437.862c0.003-0.203 0.005-0.442 0.005-0.681 0-26.579-21.345-48.172-47.829-48.573h-598.771c-26.801 0.564-48.311 22.423-48.311 49.306s21.51 48.742 48.258 49.305l0.052 0.001h598.733c26.524-0.412 47.868-22.010 47.868-48.594 0-0.268-0.002-0.536-0.007-0.804l0.001 0.040zM115.773 557.138c-64.538-1.745-116.19-54.478-116.19-119.276s51.652-117.531 116.029-119.272l0.161-0.003c64.538 1.745 116.19 54.478 116.19 119.276s-51.652 117.531-116.029 119.272l-0.161 0.003zM976.138 849.080h-598.733c-26.801-0.564-48.311-22.423-48.311-49.306s21.51-48.742 48.258-49.305l0.052-0.001h598.733c26.801 0.564 48.311 22.423 48.311 49.306s-21.51 48.742-48.258 49.305l-0.052 0.001zM115.773 919.040c-64.159-0.996-115.786-53.24-115.786-117.542 0-0.61 0.005-1.218 0.014-1.825l-0.001 0.092c-0.008-0.516-0.013-1.124-0.013-1.734 0-64.302 51.628-116.546 115.693-117.541l0.094-0.001c64.159 0.996 115.786 53.24 115.786 117.542 0 0.61-0.005 1.218-0.014 1.825l0.001-0.092c0.008 0.516 0.013 1.124 0.013 1.734 0 64.302-51.628 116.546-115.693 117.541l-0.094 0.001zM976.138 125.051h-598.733c-26.801-0.564-48.311-22.423-48.311-49.306s21.51-48.742 48.258-49.305l0.052-0.001h598.733c26.801 0.564 48.311 22.423 48.311 49.306s-21.51 48.742-48.258 49.305l-0.052 0.001zM115.773 195.011c-64.376-1.946-115.821-54.598-115.821-119.265s51.446-117.32 115.643-119.261l0.179-0.004c64.376 1.946 115.821 54.598 115.821 119.265s-51.446 117.32-115.643 119.261l-0.179 0.004z" />
<glyph unicode="&#xe911;" glyph-name="download" d="M512 960c-282.77 0-512-229.23-512-512s229.23-512 512-512c282.77 0 512 229.23 512 512v0c0 0.207 0 0.452 0 0.697 0 282.385-228.918 511.304-511.304 511.304-0.245 0-0.49 0-0.735-0.001h0.038zM443.74 476.447l2.273 227.553h133.12l2.273-227.553 73.953 17.060-143.36-187.74-142.213 187.74zM768 192h-512v56.893h512v-56.893z" />
<glyph unicode="&#xe912;" glyph-name="drag-file" d="M673.792 960h-430.797c-66.485-0.681-120.119-54.736-120.119-121.318 0-0.319 0.001-0.637 0.004-0.956v0.049-779.551c-0.002-0.27-0.003-0.588-0.003-0.907 0-66.581 53.634-120.636 120.054-121.317l0.065-0.001h558.387c66.485 0.681 120.119 54.736 120.119 121.318 0 0.319-0.001 0.637-0.004 0.956v-0.049 620.012zM682.701 900.198l186.204-211.743h-186.204v211.743zM889.016 58.245c0.002-0.196 0.002-0.428 0.002-0.66 0-48.577-39.13-88.014-87.589-88.51h-558.434c-48.515 0.485-87.657 39.927-87.657 88.51 0 0.232 0.001 0.464 0.003 0.695v-0.035 779.53c-0.002 0.196-0.002 0.428-0.002 0.66 0 48.584 39.142 88.025 87.611 88.51h407.27v-271.544h238.797v-597.156zM374.456 386.089l24.699-21.484 104.079 123.863v-315.085h32.481v315.085l104.1-123.863 24.678 21.484-145.039 172.503z" />
<glyph unicode="&#xe913;" glyph-name="duplicate" d="M206.684 72.028l-1.884 130.212h-204.8v757.76h757.76v-204.8h266.24v-819.2h-817.316v136.028zM942.080 345.6v327.68h-327.68c-177.377-0.184-327.311 0.369-327.68 0s0.123-150.446 0-327.68v-327.68h655.36v327.68zM204.8 529.92v225.28h471.040v122.88h-593.92v-593.92h122.88v245.76z" />
<glyph unicode="&#xe914;" glyph-name="edit" d="M635.392 775.68l207.872-200.97-526.172-508.785-207.749 200.97zM1001.001 824.074l-92.713 89.62c-16.869 16.089-39.765 25.99-64.973 25.99s-48.103-9.901-65.010-26.025l0.037 0.035-88.781-85.852 207.872-200.97 103.567 100.147c12.851 12.217 20.845 29.438 20.845 48.527s-7.994 36.311-20.817 48.501l-0.028 0.027zM0.573-15.606c-0.3-1.401-0.471-3.011-0.471-4.66 0-12.86 10.425-23.286 23.286-23.286 2.082 0 4.1 0.273 6.020 0.786l-0.163-0.037 231.629 54.292-207.811 200.991z" />
<glyph unicode="&#xe915;" glyph-name="error" d="M512 960c-282.77 0-512-229.23-512-512s229.23-512 512-512c282.77 0 512 229.23 512 512v0c0 282.77-229.23 512-512 512v0zM91.013 448c0 0.004 0 0.009 0 0.014 0 232.493 188.473 420.966 420.966 420.966 96.518 0 185.449-32.482 256.458-87.11l-0.99 0.732-590.070-590.049c-53.883 69.795-86.365 158.51-86.365 254.812 0 0.223 0 0.447 0.001 0.67v-0.035zM512 27.013c-0.172 0-0.374 0-0.577 0-95.665 0-183.843 32.051-254.384 86l1.010-0.741 589.681 589.681c53.203-69.741 85.242-158.115 85.242-253.972 0-232.493-188.473-420.966-420.966-420.966-0.002 0-0.003 0-0.005 0v0z" />
<glyph unicode="&#xe916;" glyph-name="facebook" d="M767.898 403.087l24.433 181.965h-187.597v116.183c0 52.675 15.299 88.596 93.942 88.596h100.352v162.816c-42.425 4.557-91.639 7.156-141.461 7.156-1.698 0-3.395-0.003-5.092-0.009l0.264 0.001c-144.65 0-243.712-84.808-243.712-240.579v-134.185h-163.533v-181.965h163.594v-466.944h195.625v466.944h163.164z" />
<glyph unicode="&#xe917;" glyph-name="funnels" d="M463.811 853.258h7.721c26.115 1.020 47.356 20.62 50.921 45.899l0.033 0.283c0.321 2.18 0.504 4.696 0.504 7.255 0 12.348-4.264 23.7-11.399 32.665l0.082-0.107c-7.725 11.187-19.791 18.904-33.711 20.72l-0.244 0.026c-1.267 0.107-2.743 0.168-4.232 0.168-27 0-49.318-20.050-52.876-46.073l-0.031-0.277c-0.293-2.125-0.461-4.582-0.461-7.077 0-26.29 18.588-48.239 43.339-53.421l0.355-0.062zM735.601 730.624h9.257c33.457 0.866 60.758 26.117 64.827 58.592l0.034 0.329c0.181 2.002 0.284 4.329 0.284 6.681 0 15.865-4.689 30.634-12.757 42.999l0.185-0.303c-10.024 13.844-25.348 23.32-42.936 25.448l-0.298 0.029c-1.981 0.21-4.28 0.33-6.607 0.33-34.144 0-62.265-25.789-65.947-58.951l-0.027-0.299c-0.448-2.896-0.705-6.236-0.705-9.636 0-32.5 23.408-59.533 54.285-65.158l0.405-0.061zM491.52 784.773c-0.151-1.734-0.238-3.752-0.238-5.79 0-33.763 23.688-61.993 55.352-68.978l0.469-0.087h9.257c33.453 0.875 60.749 26.121 64.826 58.592l0.034 0.329c0.18 2 0.283 4.326 0.283 6.676 0 15.867-4.689 30.638-12.757 43.004l0.185-0.303c-10.025 13.842-25.348 23.317-42.935 25.448l-0.298 0.029c-2.875 0.452-6.191 0.71-9.567 0.71-33.973 0-61.841-26.135-64.596-59.397l-0.016-0.234zM852.869 736.993c-7.911 5.767-16.992 11.564-26.421 16.811l-1.37 0.7c-1.556 0-1.556 0-1.556 1.577-3.326-8.087-8.035-14.977-13.894-20.693l-0.012-0.012c1.556 0 3.092-1.597 4.628-1.597h1.536c4.628-1.597 20.070-4.772 16.998-11.141-7.921-5.331-17.272-9.227-27.341-11.073l-0.451-0.069c-21.045-6.586-47.084-12.679-73.707-17.037l-3.502-0.473c-9.277-1.597-20.070-3.174-29.348-4.772-29.612-4.112-64.861-6.976-100.584-7.938l-1.324-0.028c-24.699-1.597-49.418-1.597-77.21-1.597h-53.965c-81.862 0.747-161.251 9.406-238.015 25.246l7.922-1.366c-12.288 3.195-66.396 14.336-32.44 25.477 15.831 6.025 34.982 11.528 54.682 15.518l2.457 0.415c3.092 0 7.721 1.597 10.813 1.597-6.356 5.723-11.547 12.598-15.271 20.314l-0.17 0.392c-18.21-3.11-34.303-7.533-49.716-13.345l1.833 0.607c-13.005-5.025-24.2-10.914-34.595-17.902l0.618 0.392c-5.943-3.447-9.876-9.779-9.876-17.029 0-5.916 2.618-11.22 6.759-14.817l0.024-0.020c57.12-68.914 114.49-145.741 167.972-225.397l6.517-10.307c34.009-50.813 61.933-109.507 80.726-172.149l1.194-4.634c-50.692-35.614-83.414-93.83-83.414-159.688 0-0.97 0.007-1.939 0.021-2.906l-0.002 0.146c-0.019-0.994-0.029-2.166-0.029-3.34 0-104.005 83.175-188.584 186.637-190.848l0.211-0.004c104.143 4.848 186.742 90.46 186.742 195.364 0 74.243-41.372 138.824-102.318 171.945l-1.029 0.512 9.277 28.672c29.48 77.307 67.469 144.139 113.966 204.037l-1.326-1.776c41.697 55.747 78.766 114.688 117.371 172.032 9.318 14.275 9.318 23.839 0.061 30.208zM681.452 134.984c0.023-0.978 0.035-2.13 0.035-3.286 0-83.291-66.678-151.009-149.567-152.687l-0.157-0.003c-83.198 2.185-149.81 70.15-149.81 153.673 0 0.846 0.007 1.69 0.020 2.532l-0.002-0.127c0.213 49.066 22.256 92.942 56.911 122.445l0.228 0.19c10.649 8.869 22.882 16.363 36.117 21.946l0.952 0.356c15.959 6.579 34.46 10.624 53.841 11.137l0.206 0.004h4.628c15.087-0.615 29.367-2.901 43.025-6.683l-1.327 0.314c9.634-3.469 17.781-7.224 25.547-11.578l-0.849 0.437c1.536 0 1.536-1.597 3.092-1.597 46.55-27.952 77.217-78.167 77.217-135.544 0-0.53-0.003-1.060-0.008-1.589l0.001 0.081zM324.833 748.155h9.257c33.457 0.866 60.758 26.117 64.827 58.592l0.034 0.329c0.18 2 0.283 4.326 0.283 6.676 0 15.867-4.689 30.638-12.757 43.004l0.185-0.303c-10.85 13.639-26.573 22.998-44.496 25.438l-0.355 0.040c-1.981 0.21-4.28 0.33-6.607 0.33-34.144 0-62.265-25.789-65.947-58.951l-0.027-0.299c-0.151-1.733-0.237-3.749-0.237-5.786 0-33.77 23.699-62.005 55.372-68.982l0.468-0.087zM664.556 762.491c-3.33 8.442-5.531 18.212-6.132 28.412l-0.012 0.26c-6.144 0-12.288 1.597-18.432 1.597 2.908-8.555 4.599-18.411 4.628-28.658v-0.014c4.884-1.071 10.494-1.684 16.247-1.684 1.302 0 2.596 0.031 3.882 0.093l-0.181-0.007zM468.439 772.055c0.637 8.781 2.836 16.902 6.321 24.297l-0.177-0.417c-20.070 0-38.605-1.577-55.603-3.174-1.956-10.383-6.275-19.526-12.383-27.177l0.095 0.123c18.432 1.577 40.141 1.577 61.768 3.174v3.154z" />
<glyph unicode="&#xe918;" glyph-name="geo-location" d="M521.81 960c-1.452 0.023-3.166 0.036-4.883 0.036-182.167 0-330.132-146.435-332.605-328.015l-0.003-0.234c1.618-47.625 11.397-92.513 27.976-133.945l-0.942 2.668 310.886-564.511 310.886 564.511c15.676 38.765 25.46 83.658 27.017 130.635l0.017 0.642c-2.884 181.9-151.018 328.25-333.334 328.25-1.764 0-3.524-0.014-5.281-0.041l0.265 0.003zM521.81 802.468c0.781 0.013 1.702 0.020 2.624 0.020 94.835 0 171.902-76.076 173.502-170.53l0.002-0.15c-2.985-94.755-80.514-170.434-175.718-170.434s-172.734 75.679-175.712 170.16l-0.007 0.274c1.192 94.517 78.090 170.678 172.777 170.678 0.89 0 1.779-0.007 2.666-0.020l-0.134 0.002z" />
<glyph unicode="&#xe919;" glyph-name="get-traffic" d="M522.465 446.198l-12.8 2.396-9.318-10.813c-35.979-44.363-90.262-72.667-151.177-73.317l-0.109-0.001c-61.087 0.337-115.477 28.721-150.991 72.918l-0.295 0.379-8.192 10.813-12.8-2.396c-101.417-20.187-176.792-108.473-176.792-214.365 0-0.691 0.003-1.381 0.010-2.070l-0.001 0.105v-189.911h698.204v189.911c0.012 0.856 0.019 1.867 0.019 2.879 0 105.357-74.905 193.22-174.366 213.238l-1.392 0.234zM349.061 448.594c109.654 1.771 197.865 91.077 197.865 200.987 0 1.182-0.010 2.362-0.031 3.54l0.002-0.177c0.018 1 0.028 2.18 0.028 3.363 0 109.905-88.213 199.207-197.7 200.964l-0.165 0.002c-109.651-1.76-197.865-91.061-197.865-200.966 0-1.182 0.010-2.362 0.031-3.54l-0.002 0.177c-0.018-1-0.028-2.18-0.028-3.363 0-109.909 88.211-199.215 197.699-200.984l0.166-0.002zM779.653 395.715c77.462 1.545 139.665 64.704 139.665 142.391 0 0.65-0.004 1.299-0.013 1.948l0.001-0.098v8.397c0.039 1.234 0.061 2.686 0.061 4.143 0 77.162-62.552 139.715-139.715 139.715s-139.715-62.552-139.715-139.715c0-1.457 0.022-2.908 0.067-4.355l-0.005 0.212v-8.397c-0.008-0.55-0.012-1.199-0.012-1.849 0-77.687 62.203-140.846 139.521-142.389l0.144-0.002zM901.857 375.235l-15.073 3.645-9.318-13.21c-27.838-31.74-68.475-51.67-113.767-51.67-6.663 0-13.226 0.431-19.662 1.268l0.759-0.081v-276.48h279.204v169.513c0.004 0.416 0.006 0.908 0.006 1.4 0 77.474-50.807 143.081-120.92 165.32l-1.228 0.336z" />
<glyph unicode="&#xe91a;" glyph-name="help" d="M512 960c-282.77 0-512-229.23-512-512s229.23-512 512-512c282.77 0 512 229.23 512 512v0c-0.105 282.728-229.272 511.895-511.99 512h-0.010zM552.96 122.368c-12.184-11.419-28.617-18.433-46.688-18.433-0.146 0-0.293 0-0.439 0.001h0.022c-0.153-0.001-0.334-0.002-0.515-0.002-18.694 0-35.755 6.99-48.712 18.499l0.075-0.066c-12.65 11.182-20.586 27.448-20.586 45.567 0 1.261 0.038 2.514 0.114 3.756l-0.008-0.171c-0.026 0.656-0.041 1.426-0.041 2.199 0 17.902 7.92 33.954 20.448 44.843l0.073 0.062c12.332 12.642 29.536 20.482 48.571 20.482 0.204 0 0.409-0.001 0.612-0.003h-0.031c0.656 0.026 1.426 0.041 2.199 0.041 17.902 0 33.954-7.92 44.843-20.448l0.062-0.073c12.407-11.929 20.2-28.58 20.479-47.052l0.001-0.052c0.067-1.072 0.106-2.324 0.106-3.585 0-18.119-7.936-34.384-20.521-45.51l-0.065-0.056zM722.944 542.208c-9.864-19.006-22.176-35.239-36.781-49.074l-0.083-0.078c-14.336-14.336-40.96-36.864-77.824-71.68l-24.576-24.576c-5.211-6.016-9.956-12.719-14.014-19.865l-0.322-0.615c-2.783-5.331-4.92-11.516-6.086-18.038l-0.058-0.394c-2.048-6.144-4.096-16.384-8.192-30.72-2.312-26.503-24.397-47.141-51.303-47.141-0.684 0-1.365 0.013-2.042 0.040l0.097-0.003c-0.248-0.004-0.54-0.007-0.833-0.007-14.985 0-28.502 6.287-38.057 16.367l-0.022 0.024c-10.212 10.787-16.491 25.389-16.491 41.457 0 1.266 0.039 2.523 0.116 3.77l-0.008-0.171c-0.023 1.020-0.036 2.221-0.036 3.426 0 22.406 4.53 43.755 12.724 63.179l-0.4-1.069c8.341 18.805 18.635 35.005 30.95 49.428l-0.23-0.276c16.298 17.702 33.696 33.802 52.302 48.435l0.946 0.717c18.432 16.384 32.768 30.72 40.96 38.912 8.408 8.428 15.851 17.826 22.146 28.008l0.382 0.664c5.187 9.318 8.24 20.439 8.24 32.272 0 0.895-0.017 1.785-0.052 2.671l0.004-0.127c0.032 0.831 0.050 1.807 0.050 2.786 0 23.357-10.29 44.311-26.584 58.576l-0.090 0.077c-17.446 15.313-40.462 24.655-65.66 24.655-1.397 0-2.787-0.029-4.17-0.086l0.198 0.006c-2.3 0.188-4.979 0.295-7.683 0.295-25.358 0-48.514-9.426-66.155-24.966l0.11 0.095c-18.010-20.357-31.501-45.141-38.638-72.492l-0.274-1.236c-10.24-34.816-30.72-51.2-59.392-51.2-0.057 0-0.125 0-0.193 0-16.85 0-32.048 7.070-42.79 18.406l-0.025 0.027c-10.945 9.551-17.959 23.368-18.43 38.831l-0.002 0.081c1.421 32.98 11.928 63.245 29.061 88.676l-0.389-0.612c20.622 30.536 47.407 55.358 78.719 73.126l1.153 0.602c34.451 18.091 75.271 28.708 118.57 28.708 1.515 0 3.028-0.013 4.537-0.039l-0.227 0.003c1.175 0.018 2.561 0.029 3.949 0.029 40.902 0 79.686-9.068 114.451-25.303l-1.664 0.698c31.603-15.463 57.765-37.69 77.408-64.93l0.416-0.606c16.687-24.837 26.634-55.415 26.634-88.317 0-0.631-0.004-1.261-0.011-1.891l0.001 0.096c0.235-2.922 0.369-6.326 0.369-9.762 0-21.887-5.441-42.503-15.044-60.569l0.339 0.699z" />
<glyph unicode="&#xe91b;" glyph-name="instagram" d="M741.376 939.52h-458.752c-0.742 0.007-1.619 0.011-2.496 0.011-153.601 0-278.33-123.617-280.126-276.793l-0.002-0.17v-449.741c1.787-153.354 126.52-276.983 280.128-276.983 0.878 0 1.754 0.004 2.63 0.012l-0.134-0.001h458.752c0.742-0.007 1.618-0.011 2.496-0.011 153.615 0 278.353 123.64 280.127 276.835l0.002 0.168v449.72c-1.798 153.345-126.527 276.962-280.128 276.962-0.878 0-1.755-0.004-2.63-0.012l0.134 0.001zM933.11 212.808c-1.234-104.032-85.855-187.891-190.062-187.891-0.588 0-1.175 0.003-1.761 0.008l0.090-0.001h-458.752c-0.497-0.005-1.083-0.007-1.671-0.007-104.222 0-188.852 83.882-190.062 187.818l-0.001 0.114v449.72c1.199 104.059 85.834 187.952 190.063 187.952 0.587 0 1.174-0.003 1.76-0.008l-0.090 0.001h458.752c0.497 0.005 1.083 0.007 1.671 0.007 104.222 0 188.852-83.882 190.062-187.818l0.001-0.114v-449.741zM512 696.32c-0.687 0.007-1.498 0.010-2.311 0.010-143.407 0-259.859-115.405-261.552-258.41l-0.001-0.16c2.613-143.737 119.748-259.256 263.864-259.256s261.251 115.519 263.861 259.011l0.004 0.245c-1.706 143.168-118.163 258.57-261.574 258.57-0.805 0-1.61-0.004-2.414-0.011l0.123 0.001zM512 268.124c-92.191 1.907-166.195 77.092-166.195 169.561 0 93.665 75.93 169.595 169.595 169.595 93.638 0 169.552-75.887 169.595-169.516v-0.004c-1.061-93.906-77.433-169.622-171.489-169.622-0.529 0-1.058 0.002-1.586 0.007l0.081-0.001zM786.924 771.83c-0.004 0-0.008 0-0.012 0-18.319 0-34.935-7.288-47.108-19.123l0.016 0.015c-12.069-11.707-19.558-28.075-19.558-46.193s7.49-34.486 19.542-46.177l0.016-0.016c12.158-11.827 28.779-19.119 47.104-19.119s34.946 7.293 47.12 19.135l-0.016-0.015c12.037 11.722 19.505 28.085 19.505 46.193s-7.467 34.471-19.491 46.179l-0.014 0.014c-12.157 11.82-28.773 19.108-47.092 19.108-0.004 0-0.008 0-0.013 0h0.001z" />
<glyph unicode="&#xe91c;" glyph-name="integration" d="M330.834 550.298c8.913-9.439 18.269-18.178 28.147-26.307l0.525-0.419c10.24-9.4 19.374-17.838 29.061-27.013l69.345 66.519 180.224-164.659-67.482-67.584c-9.434 7.178-17.8 14.628-25.558 22.668l-0.062 0.065c-1.814 3.037-5.084 5.039-8.821 5.039-0.327 0-0.65-0.015-0.968-0.045l0.041 0.003c16.634-12.439 31.284-25.809 44.533-40.469l0.237-0.266c14.284-14.372 29.434-27.835 45.384-40.321l1.064-0.803 69.304 67.461 63.713-57.446 54.518 55.071c30.674 27.899 55.983 61.052 74.63 98.133l0.88 1.932c15.941 33.75 25.247 73.315 25.247 115.054 0 48.385-12.506 93.849-34.462 133.337l0.715-1.402c-4.997 8.786-12.042 18.432-17.285 27.464 13.025 8.786 123.761 124.375 150.876 150.323 3.746 3.167 6.696 7.155 8.588 11.696l0.075 0.203-0.164 6.84c-4.5 6.701-10.014 12.332-16.387 16.823l-0.202 0.135c-19.938 20.208-40.927 39.212-62.947 56.991l-1.422 1.111-164.864-164.557c-55.091 24.863-56.095 33.055-134.062 41.124-6.871 0.567-14.872 0.89-22.948 0.89-68.834 0-132.188-23.46-182.503-62.821l0.652 0.491c-35.608-31.853-68.305-64.531-99.126-98.924l-1.042-1.182 61.911-58.163-59.208-59.126c-4.71-3.994-4.956-3.215-10.158-7.864zM626.545 276.746l1.248-0.961c22.043-17.58 42.858-36.636 62.527-57.263l-1.006-1.143c-30.438-34.010-62.797-66.265-98.118-97.652l0.588 0.455c-50.886-40.763-115.464-65.142-185.735-65.142-45.805 0-89.191 10.358-126.148 28.089l0.982-0.51c-9.143 5.168-18.741 9.626-30.084 13.741l-81.572-80.814c-6.164-6.185-75.018-79.544-82.801-79.667-11.182-0.225-70.001 68.403-85.668 72.069l0.064 0.279c2.702 9.987 9.187 18.419 17.999 23.764l143.688 145.674-0.704 1.614c-4.735 9.782-10.041 19.236-15.229 27.243l0.676-1.271c-17.269 29.941-28.807 63.604-33.239 100.743l0.116-1.253c-1.17 10.254-1.772 20.68-1.772 31.247 0 42.387 9.676 82.515 26.231 116.664l0.804 1.822c18.233 37.317 43.784 70.405 75.157 97.711 15.421 15.524-5.489-4.096 9.953 11.428l0.386 0.435c13.636 15.117 28.198 29.381 44.219 43.228l62.007-57.142c8.777-9.293 18.133-18.032 28.535-26.58 10.281-9.4 19.374-17.838 29.061-27.013l112.169-102.523c13.169-11.94 12.452-8.806 13.169-15.299l0.143-0.078c5.215-3.061 9.438-7.632 12.145-13.296 8.888-3.707 2.212 0.594 8.991-6.738l0.794-0.57c15.839-11.869 30.489-25.239 43.975-40.165l0.024-0.024c14.26-14.348 29.41-27.81 46.424-41.099zM526.336 365.343c0.123 7.578 3.154 2.56-2.99 8.643-2.356 2.585-5.603 4.323-9.252 4.725l-0.066 0.006c5.367-3.136 9.596-7.708 12.229-13.191l0.079-0.183zM535.327 358.605c-2.171 6.144 1.802 2.847-2.847 5.714-6.144 3.871 4.833 1.556-6.144 1.024 8.868-3.727 2.191 0.594 8.97-6.738z" />
<glyph unicode="&#xe91d;" glyph-name="italic" d="M386.56 960l-12.145-68.608c6.87-1.202 15.226-2.151 23.708-2.635l0.602-0.027c0.161 0 0.351 0.001 0.542 0.001 33.096 0 64.589-6.863 93.133-19.243l-1.515 0.585v-25.354l-5.12-33.321-14.070-90.112-10.24-42.004-18.555-104.673c-0.714-3.099-1.481-5.667-2.387-8.168l0.154 0.488q-2.232-6.984-5.755-20.316t-8.049-31.027q-4.485-17.674-10.24-44.687t-10.875-56.34l-7.68-42.68-35.84-178.688-17.285-92.672c-3.671-25.496-12.958-48.294-26.574-67.853l0.339 0.514c-21.172-10.362-45.918-19.294-71.72-25.517l-2.52-0.513-49.275-13.332-10.875-56.566 453.038 0.655s2.785 13.558 5.755 27.361c2.368 11.366 3.97 24.663 4.453 38.245l0.012 0.421q-19.231 3.318-42.25 6.656c-29.347 3.549-55.192 8.465-80.412 14.937l4.267-0.929c-0.71 3.262-1.117 7.009-1.117 10.851 0 2.522 0.175 5.003 0.514 7.432l-0.032-0.28 7.7 30.003 27.525 156.692 24.31 105.349 39.096 207.36q14.070 71.352 42.25 204.042 2.56 25.334 8.315 54.682c4.263 22.817 9.58 42.52 16.247 61.589l-0.887-2.914c17.547 7.299 39.101 14.398 61.252 19.997l3.403 0.729c27.983 6.525 51.249 13.594 73.886 21.959l-4.254-1.376q3.85 14.664 8.315 33.997 2.662 12.698 3.973 25.293z" />
<glyph unicode="&#xe91e;" glyph-name="justify-all" d="M0 99.84h1024v-61.44h-1024v61.44zM0 611.84h1024v-61.44h-1024v61.44zM0 857.6h1024v-61.44h-1024v61.44zM0 345.6h1024v-61.44h-1024v61.44z" />
<glyph unicode="&#xe91f;" glyph-name="lead-page" d="M997.13 960h-970.26c-14.852-0.058-26.87-12.112-26.87-26.972 0-0.007 0-0.015 0-0.022v0.001-970.015c0-0.006 0-0.013 0-0.021 0-14.86 12.018-26.914 26.864-26.972h970.266c14.852 0.058 26.87 12.112 26.87 26.972 0 0.007 0 0.015 0 0.022v-0.001 970.015c0 0.006 0 0.013 0 0.021 0 14.86-12.018 26.914-26.864 26.972h-0.006zM942.080 17.92h-860.16v798.72h860.16v-798.72zM163.84 755.2h696.32v-81.92h-696.32v81.92zM163.84 611.84h696.32v-81.92h-696.32v81.92zM163.84 448h696.32v-81.92h-696.32v81.92zM163.84 284.16h696.32v-81.92h-696.32v81.92zM512 140.8h348.16v-81.92h-348.16v81.92z" />
<glyph unicode="&#xe920;" glyph-name="lead-popup" d="M266.24 325.12v102.4h348.16v-102.4h-348.16zM778.24 509.44h-512v102.4h512v-102.4zM778.24 693.76h-512v102.4h512v-102.4zM900.465 960h-756.511c-41.554 0-41.554 0-41.554-42.291v-770.232c0-42.291-0.573-47.636 40.96-47.636h245.76l133.12-163.84 133.12 163.84h245.76c41.533 0 40.96 4.219 40.96 46.531v770.212c1.024 43.418 1.024 43.418-41.615 43.418z" />
<glyph unicode="&#xe921;" glyph-name="left-text" d="M1024 99.84h-1024v-61.44h1024v61.44zM573.44 611.84h-573.44v-61.44h573.44v61.44zM1024 857.6h-1024v-61.44h1024v61.44zM819.2 345.6h-819.2v-61.44h819.2v61.44z" />
<glyph unicode="&#xe922;" glyph-name="library" d="M827.085 148.992v0c3.584 0 60.457-1.393 63.488 0 0.184 0-63.795 0-63.488 0 1.065 0.512 62.648-0.635 63.488 0 1.454 0.963-1.208-1.249 0 0s-0.819-1.29 0 0-0.573-1.434 0 0-0.246-1.659 0 0c0.143 1.065 0 61.338 0 62.484v687.268c2.048-4.854-29 0-42.373 0h-847.421c6.492-1.946 0-4.854 0 0v-713.667c0.132-0.907 0.303-1.696 0.523-2.465l-0.032 0.13c0.16-1.664 0.5-3.193 1.005-4.644l-0.042 0.139c0.509-1.567 1.133-2.922 1.894-4.186l-0.050 0.090c0.769-1.326 1.588-2.471 2.503-3.532l-0.025 0.029c1.083-1.214 2.256-2.303 3.524-3.273l0.060-0.044c0.533-0.574 1.102-1.097 1.709-1.573l0.032-0.024c0.573-0.348 1.249-0.348 1.823-0.635 1.454-0.737-14.52-15.708-12.923-16.097s-1.638 0.143 0 0c0.717 0-0.676 0 0 0h826.307zM827.085 836.362v-562.442l-223.519 428.032c-4.321 7.654-12.402 12.738-21.67 12.738-8.799 0-16.528-4.582-20.93-11.491l-0.060-0.1-177.93-296.264-122.88 116.859c-4.465 4.17-10.479 6.731-17.092 6.731-0.919 0-1.827-0.049-2.72-0.146l0.111 0.010c-7.398-0.721-13.752-4.653-17.724-10.365l-0.053-0.080-158.269-245.924v562.34h762.737zM267.141 806.666c0.866 0.023 1.885 0.036 2.907 0.036 64.211 0 116.465-51.196 118.168-114.996l0.003-0.158c-1.706-63.957-53.96-115.154-118.171-115.154-1.022 0-2.041 0.013-3.057 0.039l0.15-0.003c-0.866-0.023-1.885-0.036-2.907-0.036-64.211 0-116.465 51.196-118.168 114.996l-0.003 0.158c1.706 63.957 53.96 115.154 118.171 115.154 1.022 0 2.041-0.013 3.057-0.039l-0.15 0.003zM1017.856 46.961v726.815c0 12.698 13.373 0 0 0h-63.488c8.479 2.048 3.973-0.963 0 0v-624.783c0.108-1.33 0.17-2.88 0.17-4.444 0-32.202-26.105-58.307-58.307-58.307-1.884 0-3.747 0.089-5.586 0.264l0.234-0.018h-762.982c-13.373 0 0 12.718 0 0v-62.484c0-12.718-13.373 0 0 0h865.649c0.198-0.006 0.431-0.009 0.665-0.009 12.822 0 23.262 10.202 23.644 22.932l0.001 0.035z" />
<glyph unicode="&#xe923;" glyph-name="link" d="M952.484 886.108l-4.096 4.096c-43.874 43.625-104.354 70.591-171.131 70.591s-127.256-26.966-171.142-70.602l-217.999-218.162c-43.626-43.878-70.593-104.36-70.593-171.141s26.966-127.263 70.604-171.152l4.085-4.085c7.557-7.524 15.621-14.555 24.13-21.032l0.59-0.431 79.872 79.872c-9.917 5.845-18.485 12.483-26.121 20.058l0.009-0.008-4.096 4.096c-23.68 23.737-38.323 56.5-38.323 92.682s14.643 68.945 38.325 92.685l218.048 218.109c23.733 23.69 56.497 38.34 92.682 38.34s68.949-14.65 92.684-38.341l4.094-4.094c23.675-23.74 38.314-56.501 38.314-92.682s-14.639-68.943-38.317-92.685l-98.67-98.67c15.577-37.507 24.623-81.071 24.623-126.748 0-1.981-0.017-3.958-0.051-5.932l0.004 0.297 152.576 152.596c43.614 43.875 70.572 104.35 70.572 171.12 0 66.822-26.999 127.337-70.684 171.233l0.009-0.010zM630.19 571.843c-7.559 7.519-15.63 14.544-24.148 21.012l-0.592 0.431-79.872-79.872c9.916-5.848 18.483-12.486 26.121-20.059l4.087-4.087c23.68-23.737 38.323-56.5 38.323-92.682s-14.643-68.945-38.325-92.685l-218.109-218.007c-23.735-23.685-56.498-38.331-92.682-38.331s-68.947 14.646-92.685 38.334l-4.094 4.094c-23.675 23.74-38.314 56.501-38.314 92.682s14.639 68.943 38.317 92.685l98.67 98.67c-15.577 37.494-24.623 81.043-24.623 126.705 0 1.989 0.017 3.974 0.051 5.955l-0.004-0.298-152.474-152.596c-43.621-43.88-70.584-104.362-70.584-171.141s26.963-127.261 70.596-171.153l4.084-4.084c43.878-43.626 104.36-70.593 171.141-70.593s127.263 26.966 171.152 70.604l217.999 218.101c43.622 43.883 70.586 104.368 70.586 171.151s-26.963 127.268-70.597 171.163l0.012-0.012z" />
<glyph unicode="&#xe924;" glyph-name="logout" d="M512-64c-282.317 0-512 220.426-512 491.356 1.392 190.823 112.080 355.465 272.513 434.56l2.861 1.275c9.817 5.094 21.433 8.081 33.746 8.081 27.645 0 51.773-15.056 64.632-37.415l0.192-0.362c5.183-9.431 8.232-20.668 8.232-32.617 0-27.226-15.83-50.755-38.789-61.883l-0.409-0.179c-116.699-57.45-195.819-175.089-196.894-311.316l-0.001-0.144c0-193.618 164.147-351.15 365.896-351.15s365.896 157.532 365.896 351.15c-0.983 136.933-80.726 255.009-196.139 311.267l-2.066 0.909c-23.485 11.265-39.412 34.855-39.412 62.164 0 11.818 2.983 22.94 8.237 32.654l-0.18-0.364c12.984 22.846 37.156 38.006 64.869 38.006 12.241 0 23.791-2.958 33.975-8.198l-0.417 0.195c164.362-79.912 275.931-245.087 277.257-436.457l0.001-0.177c0-270.93-229.683-491.356-512-491.356zM512 299.418c-0.413-0.009-0.901-0.013-1.389-0.013-39.038 0-70.787 31.207-71.661 70.035l-0.001 0.081v520.376c1.513 39.185 33.645 70.378 73.062 70.378s71.549-31.193 73.058-70.241l0.004-0.137v-520.356c-0.864-38.919-32.618-70.137-71.663-70.137-0.496 0-0.99 0.005-1.483 0.015l0.074-0.001z" />
<glyph unicode="&#xe925;" glyph-name="manage" d="M1003.52-64h-983.040v1024h983.040zM40.96-43.52h942.080v983.040h-942.080v-983.040zM900.813 882.176h-777.564c-0.012 0-0.027 0-0.041 0-17.133 0-31.024-13.877-31.048-31.005v-149.895c0.035-17.132 13.931-31.007 31.068-31.007 0.007 0 0.014 0 0.022 0h777.563c17.119 0.023 30.992 13.889 31.027 31.003v149.896c-0.035 17.118-13.908 30.983-31.025 31.007h-0.002zM624.148 779.387c-0.035-17.89-14.546-32.379-32.44-32.379-0.014 0-0.029 0-0.043 0h-159.291c-0.012 0-0.027 0-0.041 0-17.895 0-32.405 14.489-32.44 32.376v26.074h224.256v-26.071zM900.813 553.964h-777.564c-0.012 0-0.027 0-0.041 0-17.133 0-31.024-13.877-31.048-31.005v-149.916c0.035-17.132 13.931-31.007 31.068-31.007 0.007 0 0.014 0 0.022 0h777.563c17.119 0.023 30.992 13.889 31.027 31.003v149.917c-0.035 17.118-13.908 30.983-31.025 31.007h-0.002zM624.169 451.154c-0.035-17.89-14.546-32.379-32.44-32.379-0.014 0-0.029 0-0.043 0h-159.312c-0.012 0-0.027 0-0.041 0-17.895 0-32.405 14.489-32.44 32.376v26.095h224.256v-26.092zM900.813 225.751h-777.564c-0.006 0-0.013 0-0.021 0-17.144 0-31.045-13.886-31.068-31.025v-149.895c0.035-17.132 13.931-31.007 31.068-31.007 0.007 0 0.014 0 0.022 0h777.563c17.119 0.023 30.992 13.889 31.027 31.003v149.896c-0.023 17.126-13.901 31.004-31.025 31.027h-0.002zM624.148 122.921c-0.023-17.899-14.538-32.399-32.44-32.399-0.014 0-0.029 0-0.043 0h-159.291c-0.012 0-0.027 0-0.041 0-17.902 0-32.417 14.501-32.44 32.397v26.073h224.256v-26.092z" />
<glyph unicode="&#xe926;" glyph-name="mobile" d="M225.28 960v-1024h593.92v1024h-593.92zM778.24-23.040h-512v204.8h512v-204.8zM778.24 222.72h-512v573.44h512v-573.44zM778.24 857.6h-512v61.44h512v-61.44zM430.080 99.84h184.32v-61.44h-184.32v61.44z" />
<glyph unicode="&#xe927;" glyph-name="navigation-close" d="M67.195 748.851h889.61c0.256-0.004 0.558-0.006 0.861-0.006 36.058 0 65.399 28.762 66.332 64.595l0.002 0.086c-0.935 35.92-30.276 64.681-66.334 64.681-0.303 0-0.605-0.002-0.907-0.006h-889.564c-0.256 0.004-0.558 0.006-0.861 0.006-36.058 0-65.399-28.762-66.332-64.595l-0.002-0.086c0.935-35.92 30.276-64.681 66.334-64.681 0.303 0 0.605 0.002 0.907 0.006h-0.046zM956.805 502.497h-889.61c-0.768 0.033-1.669 0.051-2.574 0.051-35.742 0-64.717-28.975-64.717-64.717s28.975-64.717 64.717-64.717c0.905 0 1.806 0.019 2.702 0.055l-0.128-0.004h889.61c0.768-0.033 1.669-0.051 2.574-0.051 35.742 0 64.717 28.975 64.717 64.717s-28.975 64.717-64.717 64.717c-0.905 0-1.806-0.019-2.702-0.055l0.128 0.004zM956.805 126.792h-889.61c-0.686 0.026-1.493 0.041-2.302 0.041-35.742 0-64.717-28.975-64.717-64.717s28.975-64.717 64.717-64.717c0.81 0 1.616 0.015 2.418 0.044l-0.116-0.003h889.61c0.686-0.026 1.493-0.041 2.302-0.041 35.742 0 64.717 28.975 64.717 64.717s-28.975 64.717-64.717 64.717c-0.81 0-1.616-0.015-2.418-0.044l0.116 0.003z" />
<glyph unicode="&#xe928;" glyph-name="navigation-dropdown" d="M511.345 140.186c-20.527 0.141-38.939 9.076-51.676 23.223l-0.056 0.063-439.132 476.774c-13.3 14.842-21.431 34.554-21.431 56.166s8.131 41.325 21.501 56.246l-0.070-0.080c12.723 14.316 31.185 23.291 51.743 23.291s39.020-8.975 51.681-23.221l0.061-0.070 387.379-420.557 387.338 420.557c12.723 14.316 31.185 23.291 51.743 23.291s39.020-8.975 51.681-23.221l0.061-0.070c13.304-14.84 21.438-34.553 21.438-56.166s-8.134-41.327-21.508-56.246l0.070 0.079-439.091-476.754c-12.791-14.217-31.203-23.16-51.706-23.306h-0.026z" />
<glyph unicode="&#xe929;" glyph-name="navigation-open" d="M67.195 748.831h633.61c0.256-0.004 0.558-0.006 0.861-0.006 36.051 0 65.387 28.75 66.332 64.574l0.002 0.087c-0.991 35.886-30.318 64.599-66.352 64.599-0.296 0-0.592-0.002-0.888-0.006h-633.565c-0.251 0.003-0.547 0.005-0.843 0.005-36.034 0-65.361-28.713-66.35-64.508l-0.002-0.091c0.946-35.911 30.282-64.661 66.334-64.661 0.303 0 0.605 0.002 0.907 0.006h-0.046zM956.785 502.456h-889.59c-0.686 0.026-1.493 0.041-2.302 0.041-35.742 0-64.717-28.975-64.717-64.717s28.975-64.717 64.717-64.717c0.81 0 1.616 0.015 2.418 0.044l-0.116-0.003h889.61c0.686-0.026 1.493-0.041 2.302-0.041 35.742 0 64.717 28.975 64.717 64.717s-28.975 64.717-64.717 64.717c-0.81 0-1.616-0.015-2.418-0.044l0.116 0.003zM700.785 126.751h-633.59c-0.768 0.033-1.669 0.051-2.574 0.051-35.742 0-64.717-28.975-64.717-64.717s28.975-64.717 64.717-64.717c0.905 0 1.806 0.019 2.702 0.055l-0.128-0.004h633.61c0.768-0.033 1.669-0.051 2.574-0.051 35.742 0 64.717 28.975 64.717 64.717s-28.975 64.717-64.717 64.717c-0.905 0-1.806-0.019-2.702-0.055l0.128 0.004z" />
<glyph unicode="&#xe92a;" glyph-name="next" d="M245.76 960l634.88-518.492-635.535-505.508-80.753 93.819 519.209 412.918-519.844 424.509z" />
<glyph unicode="&#xe92b;" glyph-name="numbering-list" d="M71.045 380.129l-0.451 1.618 29.225 29.757c13.751 13.523 26.553 27.889 38.368 43.060l0.728 0.972c6.625 9.193 10.596 20.683 10.596 33.1 0 0.337-0.003 0.673-0.009 1.009l0.001-0.051c0.036 0.742 0.056 1.613 0.056 2.487 0 17.081-7.745 32.353-19.915 42.497l-0.089 0.072c-13.919 10.333-31.437 16.54-50.406 16.54-1.814 0-3.615-0.057-5.401-0.169l0.244 0.012c-1.044 0.052-2.267 0.082-3.496 0.082-19.442 0-37.143-7.457-50.398-19.667l0.052 0.047c-12.092-11.149-19.64-27.069-19.64-44.751 0-0.957 0.022-1.909 0.066-2.855l-0.005 0.134 0.307-0.635h48.947c-0.007 0.282-0.011 0.614-0.011 0.947 0 8.088 2.412 15.612 6.555 21.894l-0.092-0.149c3.742 5.396 9.905 8.886 16.882 8.886 0.3 0 0.599-0.006 0.896-0.019l-0.042 0.001c0.536 0.042 1.162 0.066 1.792 0.066 6.685 0 12.74-2.701 17.132-7.071l-0.001 0.001c3.944-4.641 6.342-10.702 6.342-17.323 0-0.477-0.012-0.95-0.037-1.421l0.003 0.066c-0.433-7.221-2.663-13.841-6.244-19.524l0.1 0.17c-6.084-9.547-12.759-17.843-20.237-25.336l0.003 0.003-70.349-68.465v-29.041h149.709v33.055h-81.183zM103.813 689.951v167.649l-101.274-14.193v-33.669h48.415v-119.788h-48.435v-37.151h149.709v37.13h-48.435zM146.104 127.058c-7.018 8.354-16.227 14.653-26.746 18.031l-0.411 0.114c9.8 4.041 18.007 10.229 24.324 18.012l0.088 0.112c5.651 6.856 9.087 15.722 9.114 25.389v0.006c0.032 0.668 0.051 1.45 0.051 2.237 0 16.711-8.274 31.49-20.949 40.463l-0.155 0.104c-14.515 9.539-32.308 15.215-51.426 15.215-1.685 0-3.36-0.044-5.024-0.131l0.233 0.010c-0.779 0.025-1.694 0.039-2.613 0.039-18.247 0-35.177-5.636-49.145-15.262l0.292 0.19c-12.344-8.17-20.373-21.994-20.373-37.693 0-0.796 0.021-1.587 0.061-2.373l-0.005 0.11 0.307-1.556h48.62c-0.066 0.518-0.104 1.117-0.104 1.725 0 5.419 3.007 10.136 7.444 12.573l0.074 0.037c4.753 3.522 10.729 5.642 17.201 5.652h0.003c0.594 0.049 1.286 0.077 1.984 0.077 6.535 0 12.498-2.445 17.027-6.469l-0.026 0.023c3.988-3.948 6.458-9.423 6.458-15.475 0-0.19-0.002-0.379-0.007-0.568l0.001 0.028c0.024-0.419 0.038-0.909 0.038-1.402 0-6.975-2.789-13.298-7.313-17.915l0.004 0.004c-5.131-4.5-11.899-7.245-19.307-7.245-0.513 0-1.024 0.013-1.53 0.039l0.071-0.003h-23.409v-33.055h23.511c0.466 0.022 1.012 0.034 1.56 0.034 8.182 0 15.722-2.746 21.749-7.367l-0.085 0.063c5.117-4.891 8.298-11.77 8.298-19.392 0-0.837-0.038-1.666-0.114-2.483l0.008 0.105c0.003-0.147 0.005-0.319 0.005-0.492 0-6.853-3.038-12.997-7.841-17.158l-0.028-0.024c-5.275-4.393-12.123-7.060-19.594-7.060-0.52 0-1.038 0.013-1.552 0.039l0.072-0.003c-7.55 0.121-14.418 2.946-19.698 7.548l0.037-0.031c-4.977 3.634-8.175 9.448-8.175 16.009 0 0.463 0.016 0.923 0.047 1.379l-0.003-0.062h-48.865l-0.287-1.782c-0.080-1.037-0.125-2.245-0.125-3.464 0-16.886 8.745-31.73 21.953-40.25l0.189-0.114c14.542-9.537 32.361-15.212 51.506-15.212 0.612 0 1.224 0.006 1.833 0.017l-0.091-0.001c1.239-0.056 2.692-0.087 4.153-0.087 19.966 0 38.547 5.931 54.077 16.128l-0.374-0.23c13.767 9.173 22.715 24.632 22.715 42.182 0 0.535-0.008 1.069-0.025 1.6l0.002-0.078c0.010 0.353 0.016 0.769 0.016 1.185 0 10.604-3.663 20.353-9.793 28.049l0.070-0.091zM256 164.434h768v-63.017h-768v63.017zM256 479.519h768v-63.017h-768v63.017zM256 794.604h768v-63.017h-768v62.996z" />
<glyph unicode="&#xe92c;" glyph-name="overview" d="M995.103 99.84l-253.727 253.952c36.298 59.151 57.796 130.779 57.796 207.427 0 221.533-179.588 401.121-401.121 401.121s-401.121-179.588-401.121-401.121c0-221.533 179.588-401.121 401.121-401.121 76.755 0 148.475 21.558 209.434 58.95l-1.748-0.997 253.727-253.932c17.265-16.814 40.879-27.183 66.914-27.183 52.991 0 95.949 42.958 95.949 95.949 0 26.055-10.386 49.685-27.243 66.975l0.020-0.020zM127.898 560.005c0.128 150.009 121.764 271.565 271.79 271.565 150.106 0 271.79-121.685 271.79-271.79s-121.685-271.79-271.79-271.79v0c-150.091 0.233-271.685 121.907-271.79 272.005v0.010zM225.28 591.36h81.92v-163.84h-81.92v163.84zM348.16 632.32h81.92v-204.8h-81.92v204.8zM471.040 693.76h81.92v-266.24h-81.92v266.24z" />
<glyph unicode="&#xe92d;" glyph-name="payment-history" d="M551.813 336.998c-0.117-0.001-0.256-0.001-0.394-0.001-10.891 0-21.033 3.208-29.533 8.731l0.21-0.128c-7.39 4.4-12.356 12.199-12.737 21.185l-0.002 0.053c0.002 0.056 0.002 0.121 0.002 0.187 0 4.004-3.246 7.25-7.25 7.25-0.066 0-0.131-0.001-0.196-0.003h-98.642c-0.376 0.080-0.809 0.125-1.252 0.125-3.484 0-6.308-2.824-6.308-6.308 0-0.443 0.046-0.876 0.133-1.293l-0.007 0.041c-0.008-0.536-0.012-1.169-0.012-1.803 0-15.718 2.728-30.799 7.736-44.796l-0.29 0.928c5.444-15.088 12.996-28.122 22.455-39.515l-0.173 0.214c10.043-11.94 21.185-22.42 33.431-31.495l0.525-0.372c12.642-9.245 27.573-16.231 43.738-20.010l0.827-0.163v-53.187c-0.029-0.235-0.046-0.507-0.046-0.783 0-3.699 2.998-6.697 6.697-6.697 0.276 0 0.548 0.017 0.815 0.049l-0.032-0.003h81.695c0.376-0.080 0.809-0.125 1.252-0.125 3.484 0 6.308 2.824 6.308 6.308 0 0.443-0.046 0.876-0.133 1.293l0.007-0.041v54.17c30.637 9.21 56.351 27.045 75.088 50.665l0.237 0.31c20.437 23.489 32.895 54.39 32.895 88.202 0 0.355-0.001 0.709-0.004 1.063v-0.054c0.010 0.63 0.016 1.373 0.016 2.117 0 21.215-4.7 41.333-13.117 59.368l0.362-0.864c-9.004 18.869-21.956 34.556-37.875 46.505l-0.32 0.23c-13.086 10.218-28.147 18.787-44.375 24.994l-1.193 0.401c-11.882 4.998-27.393 10.427-43.239 15.071l-3.435 0.863c-11.975 2.284-22.636 5.968-32.53 10.951l0.705-0.322c-6.483 2.707-12.072 5.914-17.193 9.717l0.215-0.153c-3.023 1.921-5.513 4.411-7.377 7.338l-0.057 0.096c-0.907 1.528-1.615 3.302-2.026 5.186l-0.022 0.118c3.454 4.018 7.701 7.249 12.511 9.47l0.228 0.094c7.921 4.080 17.286 6.471 27.209 6.471 1.235 0 2.462-0.037 3.678-0.11l-0.167 0.008c9.319-0.102 18.069-2.446 25.764-6.517l-0.307 0.148c7.884-3.499 13.945-9.906 16.907-17.826l0.071-0.217c0.802-3.087 3.564-5.329 6.849-5.329 0.206 0 0.41 0.009 0.612 0.026l-0.026-0.002c1.065 0 2.048 0 2.048 1.065l94.433 30.72c2.774 0.575 4.828 2.999 4.828 5.902 0 0.944-0.217 1.838-0.605 2.633l0.016-0.036c-7.997 23.485-21.123 43.442-38.113 59.316l-0.082 0.076c-17.736 16.556-39.488 29.045-63.624 35.843l-1.093 0.263v55.296c-0.030 2.041-0.801 3.896-2.056 5.313l0.008-0.009c0.011 0.11 0.017 0.237 0.017 0.365 0 2.149-1.742 3.891-3.891 3.891-0.129 0-0.256-0.006-0.381-0.018l0.016 0.001h-81.818c-0.056 0.002-0.121 0.002-0.187 0.002-4.004 0-7.25-3.246-7.25-7.25 0-0.066 0.001-0.131 0.003-0.196v0.010-54.17c-21.39-5.632-40.138-14.386-56.844-25.892l0.606 0.394c-15.982-11.603-29.112-26.1-38.844-42.819l-0.355-0.661c-8.684-14.905-13.81-32.807-13.81-51.906 0-0.422 0.002-0.843 0.007-1.263l-0.001 0.064c-0.020-0.838-0.032-1.825-0.032-2.814 0-41.572 20.366-78.388 51.666-101.014l0.365-0.251c11.023-8.685 23.608-16.168 37.118-21.897l1.077-0.406c14.848-6.369 31.826-11.674 51.999-18.063 19.883-3.189 37.506-11.081 52.262-22.499l-0.263 0.196c2.125-1.907 3.636-4.46 4.225-7.347l0.015-0.087c0-2.048 1.065-5.304 1.065-9.564-0.538-9.62-5.397-18.005-12.651-23.307l-0.087-0.061c-6.844-7.203-16.493-11.683-27.189-11.683-0.529 0-1.055 0.011-1.578 0.033l0.075-0.002zM551.813 919.040c-0.191 0-0.417 0-0.643 0-247.923 0-451.071-191.703-469.299-434.963l-0.094-1.569h-81.777l127.406-220.877 127.324 220.897h-78.602c17.439 194.259 179.462 345.359 376.775 345.359 208.876 0 378.204-169.328 378.204-378.204s-169.328-378.204-378.204-378.204c-97.77 0-186.876 37.099-254.007 97.988l0.316-0.283-63.652-70.083c83.381-76.028 194.776-122.593 317.046-122.593 260.273 0 471.265 210.993 471.265 471.265s-210.993 471.265-471.265 471.265c-0.279 0-0.558 0-0.837-0.001h0.043z" />
<glyph unicode="&#xe92e;" glyph-name="pdf-trainiing" d="M385.618 277.34h28.078c46.56 0.744 84.018 38.663 84.018 85.33s-37.458 84.586-83.948 85.329l-0.070 0.001h-84.255v-227.553h56.156v56.893zM389.12 386.56l24.576 4.547c15.483 0 36.864-9.359 36.864-25.027s-4.997-40.96-20.48-40.96l-44.462 9.093zM778.793 277.34h84.234v56.873h-84.234v56.893h112.333v56.893h-168.509v-227.553h56.156v56.893zM694.538 305.787v56.873c0.001 0.135 0.001 0.294 0.001 0.453 0 46.653-37.634 84.517-84.2 84.887h-84.31v-227.553h84.275c46.601 0.371 84.235 38.234 84.235 84.887 0 0.159 0 0.318-0.001 0.478v-0.025zM582.205 391.127h28.099c15.534-0.127 28.078-12.75 28.078-28.302 0-0.051 0-0.101 0-0.152v0.008-56.893c0-0.043 0-0.094 0-0.144 0-15.552-12.544-28.175-28.066-28.302h-28.111v113.766zM798.72 673.28l-272.691 286.72h-393.155c-62.157-0.382-112.397-50.858-112.397-113.068 0-0.253 0.001-0.505 0.002-0.758v0.039-796.426c-0.001-0.214-0.002-0.466-0.002-0.719 0-62.21 50.24-112.686 112.36-113.068h561.7c66.668 3.769 119.915 56.4 124.637 122.456l0.024 0.424v40.96h184.32v450.56h-204.8v122.88zM491.52 878.080l225.28-245.76h-225.28v245.76zM942.080 488.96v-327.68h-675.84v327.68h675.84z" />
<glyph unicode="&#xe92f;" glyph-name="plan-usage" d="M552.96 960c262.144-1.229 470.221-188.785 471.040-450.56v-20.48c-171.684-0.184-471.040 0-471.040 0v471.040zM573.44 939.52v-430.080h430.080c-3.508 236.102-193.977 426.572-429.747 430.076l-0.333 0.004zM491.52 898.56v-471.040c155.013 1.659 315.617-2.478 471.040 0 0-4.936-8.192-10.445-8.192-14.971 0.021-1.651 0.033-3.6 0.033-5.553 0-260.148-210.892-471.040-471.040-471.040-2.251 0-4.499 0.016-6.742 0.047l0.34-0.004c-263.42 0.35-476.842 213.916-476.959 477.357v0.011c-0.003 0.655-0.005 1.429-0.005 2.204 0 266.788 216.274 483.062 483.062 483.062 2.976 0 5.945-0.027 8.909-0.080l-0.445 0.006z" />
<glyph unicode="&#xe930;" glyph-name="popup" d="M935.465 960h-847.933c-46.572 0-46.572 0-46.572-38.912v-691.282c0-38.912-0.655-51.2 45.916-51.2l189.604-6.308 235.028-236.298 236.012 236.298 188.887 6.308c46.572 0 45.629 11.264 45.629 50.176v691.282c1.229 39.936 1.229 39.936-46.572 39.936v0z" />
<glyph unicode="&#xe931;" glyph-name="premium-support" d="M697.733 368.722c-0.492 0-0.983 0-1.475 0.184-3.953 0.492-7.926 0.942-11.94 1.311 0-0.389-0.123-0.778-0.123-1.188 0-1.188-0.287-2.294-0.41-3.482-0.858-7.099-2.912-13.55-5.964-19.398l0.148 0.311c-20.849-51.896-88.371-150.2-128.082-206.049l-8.192 115.978c11.829 6.209 21.359 15.403 27.8 26.6l0.176 0.331c4.488 7.447 7.218 16.4 7.413 25.975l0.001 0.055c-17.646-7.529-38.127-12.23-59.613-12.976l-0.291-0.008c-1.72 0-3.441 0-5.181 0.102s-3.441-0.102-5.181-0.102c-21.778 0.754-42.258 5.456-61.028 13.407l1.124-0.423c0.189-9.631 2.921-18.585 7.547-26.269l-0.133 0.239c6.63-11.518 16.157-20.709 27.602-26.752l0.373-0.18-8.192-115.978c-39.731 55.828-107.213 154.153-128.061 206.049-2.91 5.537-4.965 11.989-5.79 18.819l-0.026 0.268c-0.143 1.188-0.348 2.294-0.41 3.482 0 0.389-0.143 0.778-0.143 1.188-4.096-0.369-7.967-0.819-11.919-1.311-0.492 0-1.004-0.123-1.495-0.184-138.213-18.997-243.636-135.985-244.347-277.738v-0.074c0-154.911 127.078-154.563 283.853-154.563h292.434c156.754 0 283.873-0.348 283.873 154.563-0.702 141.83-106.13 258.823-242.878 277.646l-1.469 0.166zM284.365 521.277c5.59-1.548 12.010-2.437 18.637-2.437h12.759c1.065 0 2.048 0.143 3.113 0.184 33.976-104.96 107.602-177.807 193.167-177.807 77.251 0 144.753 59.392 182.272 148.173 12.33 8.476 22.916 18.307 31.911 29.473l0.222 0.284c4.448 0.307 8.563 0.948 12.555 1.906l-0.513-0.104c28.656 6.281 49.922 31.068 50.748 60.963l0.002 0.088v49.623c-0.827 29.983-22.093 54.769-50.324 60.972l-0.425 0.078v56.525c-0.123 116.244-101.949 210.801-227.123 210.801s-227-94.556-227-210.821v-56.832c-28.019-6.739-48.648-31.225-49.437-60.658l-0.002-0.086v-49.603c0.793-29.513 21.422-53.992 49.002-60.634l0.437-0.089zM511.365 915.988c1.36 0.038 2.961 0.059 4.567 0.059 84.5 0 155.117-59.444 172.312-138.796l0.211-1.162c-37.92 58.322-102.769 96.348-176.499 96.348-74.804 0-140.466-39.142-177.622-98.062l-0.51-0.867c16.307 81.773 87.505 142.541 172.896 142.541 1.634 0 3.262-0.022 4.885-0.066l-0.239 0.005zM331.776 606.085c9.317-3.090 17.41-7.223 24.727-12.383l-0.295 0.197s-21.197 124.355 23.552 141.783c38.768-17.775 83.886-29.148 131.377-31.505l0.862-0.034c48.381 2.38 93.528 13.754 134.621 32.478l-2.3-0.938c44.749-17.428 23.532-141.783 23.532-141.783 6.661 4.706 14.313 8.695 22.482 11.592l0.661 0.204v-40.96c-4.238-20.1-9.461-37.432-15.955-54.13l0.8 2.336c-32.933-21.156-72.554-34.77-115.137-37.503l-0.718-0.037c-5.365 8.115-14.449 13.394-24.766 13.394-0.027 0-0.054 0-0.080 0h-39.379c-16.174 0-29.286-13.112-29.286-29.286s13.112-29.286 29.286-29.286h39.383c0.017 0 0.036 0 0.056 0 11.272 0 21.063 6.341 25.999 15.651l0.077 0.159c33.856 2.447 65.271 10.093 94.39 22.158l-2.005-0.736c-34.324-57.344-84.972-93.798-141.64-93.798-86.016 0-158.31 83.784-180.224 197.837v34.591z" />
<glyph unicode="&#xe932;" glyph-name="previous" d="M798.72 960l-634.88-518.492 635.535-505.508 80.753 93.819-519.209 412.918 519.844 424.509z" />
<glyph unicode="&#xe933;" glyph-name="products" d="M256 704.184c0 141.43 114.652 256.082 256.082 256.082s256.082-114.652 256.082-256.082v0h102.4c28.277 0 51.2-22.923 51.2-51.2v0-665.6c0-28.277-22.923-51.2-51.2-51.2v0h-716.964c-28.277 0-51.2 22.923-51.2 51.2v0 665.6c0 28.277 22.923 51.2 51.2 51.2v0h102.4zM358.4 704.184h307.2c0 84.831-68.769 153.6-153.6 153.6s-153.6-68.769-153.6-153.6v0z" />
<glyph unicode="&#xe934;" glyph-name="profile" d="M798.72 674.427c6.881 158.147-121.569 285.573-286.72 285.573s-293.601-127.427-286.72-285.573 135.332-285.573 286.72-285.573 279.839 128.553 286.72 285.573zM81.92 139.674c0.348 112.55 91.668 203.656 204.267 203.656 0.36 0 0.721-0.001 1.080-0.003h449.521c0.304 0.002 0.665 0.003 1.025 0.003 112.599 0 203.919-91.105 204.267-203.622v-203.707h-860.16v203.674z" />
<glyph unicode="&#xe935;" glyph-name="profit-pages" d="M640 768h-640v-831.857l832-0.143v640h-192v192zM896 768h-64v192h-640v-128h576l128-192v-512h128v640h-128zM896 960v-128h128zM704 640h64l-64 64v-64z" />
<glyph unicode="&#xe936;" glyph-name="promo-page" d="M997.13 960h-970.26c-14.852-0.058-26.87-12.112-26.87-26.972 0-0.007 0-0.015 0-0.022v0.001-970.015c0-0.006 0-0.013 0-0.021 0-14.86 12.018-26.914 26.864-26.972h970.266c14.852 0.058 26.87 12.112 26.87 26.972 0 0.007 0 0.015 0 0.022v-0.001 970.015c0 0.006 0 0.013 0 0.021 0 14.86-12.018 26.914-26.864 26.972h-0.006zM942.080 17.92h-860.16v798.72h860.16v-798.72zM163.84 509.44h245.76v-245.76h-245.76v245.76zM450.56 509.44h409.6v-245.76h-409.6v245.76zM163.84 755.2h696.32v-184.32h-696.32v184.32zM266.24 202.24h491.52v-122.88h-491.52v122.88z" />
<glyph unicode="&#xe937;" glyph-name="publish" d="M512 816.64c-0.139 0-0.303 0-0.467 0-152.029 0-277.411-114.086-295.206-261.315l-0.14-1.424c-121.589-11.539-215.951-113.134-215.951-236.769 0-131.318 106.455-237.773 237.773-237.773 0.047 0 0.093 0 0.14 0h583.427c111.649 0 202.158 90.509 202.158 202.158s-90.509 202.158-202.158 202.158v0h-14.131c1.348 10.637 2.117 22.944 2.117 35.43 0 164.323-133.21 297.533-297.533 297.533-0.010 0-0.020 0-0.030 0h0.001zM410.419 243.2l-103.219 210.657 68.813 35.103 68.813-140.431 258.048 140.431 34.406-70.226z" />
<glyph unicode="&#xe938;" glyph-name="redirect" d="M921.6 38.4h-819.2v819.2h389.12v102.4h-491.52v-1024h1024v512h-102.4v-409.6zM614.4 960l147.456-147.456-290.263-290.263 114.688-114.688 290.263 290.263 147.456-147.456v409.6h-409.6z" />
<glyph unicode="&#xe939;" glyph-name="refresh" d="M982.917 505.344c0-221.184-132.198-415.744-344.945-454.656v-114.688l-363.54 192.512 363.54 206.848v-114.688c132.198 36.864 200.356 143.36 200.356 284.672-2.029 172.431-142.283 311.431-315.003 311.431s-312.974-139-315.001-311.239l-0.002-0.192c0.252-48.277 10.878-94.009 29.759-135.167l-0.841 2.047-130.13-61.44c-27.373 56.036-43.378 121.929-43.378 191.56 0 0.335 0 0.67 0.001 1.004v-0.052c1.81 252.46 206.887 456.42 459.601 456.42 251.994 0 456.623-202.799 459.58-454.093l0.003-0.279z" />
<glyph unicode="&#xe93a;" glyph-name="remove" d="M84.849 960.655c-23.714-0.112-45.128-9.861-60.548-25.527l-0.011-0.011c-15.577-15.428-25.221-36.821-25.221-60.467s9.645-45.039 25.215-60.461l0.007-0.007 366.019-365.548-366.019-365.527c-15.464-15.484-25.027-36.864-25.027-60.477 0-47.268 38.318-85.586 85.586-85.586 23.654 0 45.067 9.596 60.558 25.108l0.001 0.001 366.019 365.527 366.019-365.527c15.492-15.512 36.905-25.109 60.559-25.109 47.268 0 85.586 38.318 85.586 85.586 0 23.614-9.563 44.994-25.027 60.478l0.001-0.001-366.019 365.527 366.019 365.548c15.931 15.558 25.811 37.251 25.811 61.252 0 47.268-38.318 85.586-85.586 85.586-24.047 0-45.778-9.917-61.325-25.885l-0.018-0.019-366.019-365.527-366.019 365.527c-15.436 15.67-36.848 25.416-60.536 25.538h-0.023z" />
<glyph unicode="&#xe93b;" glyph-name="reports" d="M476.508-64q-19.128 0-38.482 1.556c-246.962 23.482-438.606 229.848-438.606 480.974 0 121.868 45.133 233.195 119.595 318.178l-0.477-0.555c84.796 96.919 207.236 159.082 344.266 163.513l0.761 0.019c0.431 0.015 0.937 0.023 1.446 0.023 12.212 0 23.277-4.912 31.327-12.869l-0.004 0.004c8.528-8.327 13.833-19.923 13.885-32.758v-453.028h394.609c25.146-0.117 45.485-20.528 45.485-45.69 0-2.203-0.156-4.37-0.457-6.49l0.028 0.243c-33.938-234.073-232.71-412.039-473.261-413.122h-0.113zM978.944 509.624h-316.396c-25.081 0.058-45.393 20.398-45.404 45.485v358.933c0.049 14.748 7.022 27.857 17.836 36.254l0.104 0.078c7.501 5.853 17.062 9.385 27.448 9.385 4.173 0 8.212-0.57 12.045-1.637l-0.315 0.075c184.377-50.891 322.348-204.592 349.437-394.057l0.3-2.558c0.273-1.877 0.429-4.044 0.429-6.247 0-25.166-20.337-45.582-45.473-45.711h-0.012z" />
<glyph unicode="&#xe93c;" glyph-name="repromote" d="M414.659 303.411h-85.914l42.947-346.931-16.527-3.4-54.518-13.599-16.507-3.4-107.377 369.029h-23.163c-52.312 1.339-94.209 44.064-94.209 96.574 0 0.119 0 0.237 0.001 0.355v-0.018 37.396h-28.017c-17.386 0.264-31.379 14.419-31.379 31.843 0 0.16 0.001 0.319 0.004 0.478v-0.024 120.709c-0.002 0.147-0.004 0.321-0.004 0.495 0 17.42 13.995 31.571 31.355 31.823h28.041v42.496c0 0.1-0.001 0.218-0.001 0.337 0 52.511 41.896 95.236 94.085 96.572l0.124 0.003h261.059v-40.796c113.992 18.698 303.985 69.632 436.224 197.222 0.847 21.953 18.848 39.429 40.931 39.429 1.837 0 3.645-0.121 5.418-0.355l-0.208 0.022c20.775-3.626 36.367-21.526 36.367-43.067 0-0.404-0.005-0.807-0.016-1.209l0.001 0.059v-246.518c53.711-21.945 90.868-73.787 90.868-134.308s-37.157-112.363-89.903-133.958l-0.965-0.35v-249.856c0.038-0.668 0.059-1.45 0.059-2.237 0-21.319-15.706-38.97-36.179-42.012l-0.232-0.028c-1.595-0.22-3.439-0.346-5.312-0.346-22.088 0-40.092 17.483-40.93 39.366l-0.002 0.076c-132.157 129.208-320.492 178.524-436.224 197.222v-39.096z" />
<glyph unicode="&#xe93d;" glyph-name="right-text" d="M0 99.84h1024v-61.44h-1024v61.44zM450.56 611.84h573.44v-61.44h-573.44v61.44zM0 857.6h1024v-61.44h-1024v61.44zM204.8 345.6h819.2v-61.44h-819.2v61.44z" />
<glyph unicode="&#xe93e;" glyph-name="save" d="M40.96 448v512l67.871-0.41 55.009 0.41v-286.72h471.040v286.72h119.931l228.229-243.118v-780.083l-942.080-0.799v512zM860.16 243.2v184.32l-347.812 2.048-348.508-2.048v-184.32c0-104.325-0.328-204.452 0-204.8s162.673-0.205 348.16 0h348.16v204.8zM225.28 161.28v40.96h573.44v-102.4h-573.44v61.44zM225.28 304.64v61.44h573.44v-102.4l-286.372 1.004-287.068-1.004v40.96zM389.12 857.6v102.4h122.88v-204.8h-122.88v102.4z" />
<glyph unicode="&#xe93f;" glyph-name="search" d="M995.103 99.84l-253.727 253.952c36.298 59.151 57.796 130.779 57.796 207.427 0 221.533-179.588 401.121-401.121 401.121s-401.121-179.588-401.121-401.121c0-221.533 179.588-401.121 401.121-401.121 76.755 0 148.475 21.558 209.434 58.95l-1.748-0.997 253.727-253.932c17.265-16.814 40.879-27.183 66.914-27.183 52.991 0 95.949 42.958 95.949 95.949 0 26.055-10.386 49.685-27.243 66.975l0.020-0.020zM127.898 560.005c0.128 150.009 121.764 271.565 271.79 271.565 150.106 0 271.79-121.685 271.79-271.79s-121.685-271.79-271.79-271.79v0c-150.091 0.233-271.685 121.907-271.79 272.005v0.010z" />
<glyph unicode="&#xe940;" glyph-name="session" d="M670.618 536.904c63.488 45.609 156.877 112.763 171.643 311.296h9.011c0.092-0.001 0.2-0.001 0.309-0.001 27.232 0 49.331 21.971 49.54 49.154v13.312c-0.231 27.184-22.322 49.132-49.539 49.132-0.101 0-0.203 0-0.304-0.001h-657.965c-0.122 0.001-0.267 0.002-0.411 0.002-27.217 0-49.308-21.948-49.539-49.111v-13.232c0.22-27.193 22.315-49.153 49.54-49.153 0.101 0 0.203 0 0.304 0.001h22.061c14.766-198.656 108.093-265.708 171.643-311.296 40.96-29.348 62.218-46.141 62.218-77.558s-21.197-48.312-62.054-77.66c-65.925-47.309-163.84-117.801-172.954-334.029h-20.808c-0.122 0.001-0.267 0.002-0.411 0.002-27.217 0-49.308-21.948-49.539-49.111v-13.314c0.22-27.194 22.315-49.154 49.54-49.154 0.137 0 0.275 0.001 0.412 0.002h657.981c0.086-0.001 0.187-0.001 0.288-0.001 27.224 0 49.32 21.96 49.539 49.132v13.231c-0.22 27.193-22.315 49.153-49.54 49.153-0.101 0-0.203 0-0.304-0.001h-7.705c-9.093 216.33-107.049 286.72-172.954 334.111-40.96 29.348-62.239 46.141-62.239 77.578s21.361 48.169 62.239 77.517zM643.625 345.108c65.372-46.92 145.797-104.796 154.051-297.349h-537.702c8.192 192.512 88.699 250.45 154.051 297.37 41.718 29.942 81.162 58.245 81.162 114.237s-39.404 84.255-81.162 114.237c-62.71 45.056-139.264 100.106-152.74 274.678h535.081c-13.373-174.592-90.112-229.663-152.74-274.678-41.718-29.942-81.162-58.245-81.162-114.237s39.404-84.275 81.162-114.237v0zM726.753 694.764c-58.756 22.392-126.704 35.359-197.681 35.359-1.214 0-2.427-0.004-3.639-0.011l0.186 0.001c-0.993 0.006-2.168 0.010-3.344 0.010-69.043 0-135.233-12.215-196.527-34.602l3.98 1.271c25.469-41.533 59.063-75.663 98.81-100.997l1.255-0.748c43.213-31.027 92.16-66.212 92.16-135.68v-1.516h13.558v1.516c0 69.509 48.988 104.673 92.16 135.68 40.373 25.708 73.559 59.13 98.238 98.436l0.763 1.302zM289.649 84.46c-0.717-6.676-1.352-13.476-1.864-20.48h482.079c-0.102 1.556-0.266 3.011-0.369 4.526-43.482 93.067-136.299 156.395-243.907 156.395-101.343 0-189.568-56.169-235.24-139.075l-0.7-1.387z" />
<glyph unicode="&#xe941;" glyph-name="settings" d="M882.688 463.421l141.312 43.008c-7.631 66.141-26.741 126.326-55.35 180.736l1.344-2.806-141.312-43.008c-18.697 30.392-40.352 56.562-65.15 79.367l-0.263 0.239 69.632 130.294c-46.566 37.384-101.075 67.264-160.328 86.665l-3.635 1.030-69.632-130.355c-26.135 6.627-56.139 10.43-87.031 10.43-5.513 0-10.998-0.121-16.451-0.361l0.776 0.027-42.926 141.312c-66.148-7.628-126.341-26.738-180.757-55.35l2.806 1.344 43.008-141.312c-30.389-18.741-56.559-40.434-79.363-65.268l-0.243-0.268-130.376 69.652c-37.399-46.561-67.281-101.073-86.668-160.334l-1.027-3.629 130.355-69.632c-6.624-26.125-10.426-56.117-10.426-86.996 0-5.475 0.12-10.922 0.356-16.339l-0.027 0.771-141.312-42.947c7.629-66.148 26.739-126.34 55.35-180.757l-1.344 2.806 141.312 43.008c18.744-30.396 40.438-56.571 65.27-79.385l0.266-0.242-69.632-130.294c46.568-37.397 101.086-67.278 160.353-86.668l3.631-1.028 69.632 130.355c26.145-6.622 56.16-10.423 87.063-10.423 5.452 0 10.876 0.118 16.27 0.352l-0.769-0.027 43.008-141.312c66.147 7.62 126.341 26.731 180.754 55.349l-2.803-1.343-43.008 141.312c30.391 18.738 56.561 40.432 79.363 65.268l0.243 0.268 130.294-69.632c37.386 46.559 67.265 101.062 86.666 160.309l1.030 3.633-130.355 69.632c6.624 26.123 10.425 56.113 10.425 86.991 0 5.47-0.119 10.911-0.355 16.323l0.027-0.77zM576.737 235.008c-19.379-6.107-41.664-9.625-64.771-9.625-123.016 0-222.74 99.724-222.74 222.74s99.724 222.74 222.74 222.74c99.974 0 184.565-65.865 212.747-156.569l0.422-1.578c6.073-19.327 9.572-41.552 9.572-64.594 0-99.909-65.779-184.455-156.392-212.691l-1.578-0.424z" />
<glyph unicode="&#xe942;" glyph-name="share-page" d="M997.13 960h-970.26c-14.852-0.058-26.87-12.112-26.87-26.972 0-0.007 0-0.015 0-0.022v0.001-970.015c0-0.006 0-0.013 0-0.021 0-14.86 12.018-26.914 26.864-26.972h970.266c14.852 0.058 26.87 12.112 26.87 26.972 0 0.007 0 0.015 0 0.022v-0.001 970.015c0 0.006 0 0.013 0 0.021 0 14.86-12.018 26.914-26.864 26.972h-0.006zM942.080 17.92h-860.16v798.72h860.16v-798.72zM163.84 509.44h245.76v-245.76h-245.76v245.76zM450.56 509.44h409.6v-245.76h-409.6v245.76zM163.84 755.2h696.32v-184.32h-696.32v184.32zM163.84 202.24h122.88v-122.88h-122.88v122.88zM348.16 202.24h122.88v-122.88h-122.88v122.88zM552.96 202.24h122.88v-122.88h-122.88v122.88zM737.28 202.24h122.88v-122.88h-122.88v122.88z" />
<glyph unicode="&#xe943;" glyph-name="social" d="M867.328 249.979c-48.409-0.003-91.612-22.289-119.911-57.16l-0.225-0.286-439.849 219.566c2.346 10.958 3.825 23.655 4.093 36.65l0.003 0.214c-0.399 13.301-1.871 25.99-4.339 38.319l0.243-1.455 437.801 219.689c28.524-35.158 71.727-57.444 120.135-57.446h0.001c0.359-0.003 0.783-0.005 1.208-0.005 86.132 0 155.955 69.824 155.955 155.955s-69.824 155.955-155.955 155.955c-86.13 0-155.953-69.821-155.955-155.95v0c0.398-13.301 1.871-25.989 4.339-38.319l-0.243 1.455-437.821-217.58c-28.524 35.158-71.727 57.444-120.135 57.446h-0.001c-85.942-0.251-155.515-69.978-155.515-155.955 0-85.257 68.412-154.535 153.335-155.934l0.131-0.002c48.409 0.003 91.612 22.289 119.911 57.16l0.225 0.286 439.849-223.662c-2.346-10.958-3.825-23.655-4.093-36.65l-0.003-0.214c-0.007-0.529-0.010-1.154-0.010-1.78 0-85.476 69.292-154.767 154.767-154.767s154.767 69.292 154.767 154.767c0 0.626-0.004 1.251-0.011 1.875l0.001-0.095c0.085 1.902 0.134 4.133 0.134 6.375 0 83.7-67.852 151.552-151.552 151.552-0.45 0-0.9-0.002-1.35-0.006h0.069z" />
<glyph unicode="&#xe944;" glyph-name="socialmozo" d="M848.548 292.68c-50.13-0.040-95.27-21.368-126.875-55.432l-0.101-0.11-373.043 185.795c1.378 8.010 2.165 17.235 2.165 26.644 0 9.183-0.75 18.192-2.193 26.967l0.13-0.956 372.572 183.788c31.722-34.438 77.013-55.96 127.331-56.033h0.013c96.997 0.866 175.295 79.698 175.295 176.818 0 0.521-0.002 1.041-0.007 1.561l0.001-0.079c0.013 0.797 0.020 1.737 0.020 2.68 0 96.82-78.488 175.309-175.309 175.309s-175.309-78.488-175.309-175.309c0-0.942 0.007-1.883 0.022-2.821l-0.002 0.142c0.068-9.228 0.81-18.225 2.18-27.015l-0.132 1.026-372.552-183.788c-31.719 34.442-77.011 55.965-127.332 56.033h-0.013c-97.314-1.522-175.617-80.766-175.617-178.299s78.303-176.777 175.474-178.297l0.143-0.002c50.13 0.040 95.27 21.368 126.875 55.432l0.101 0.11 373.043-185.815c-1.307-7.951-2.093-17.164-2.17-26.546l-0.001-0.078c1.67-95.535 79.507-172.339 175.284-172.339 96.82 0 175.309 78.488 175.309 175.309 0 96.819-78.486 175.306-175.304 175.309v0z" />
<glyph unicode="&#xe945;" glyph-name="strik-ethrough" d="M1024 448v-61.44h-234.516c26.058-33.678 41.957-76.371 42.495-122.757l0.001-0.123c-2.634-74.899-41.617-140.161-99.76-178.973l-0.817-0.513c-59.733-41.51-133.79-66.317-213.642-66.317-2.026 0-4.047 0.016-6.065 0.048l0.305-0.004c-1.718-0.028-3.744-0.044-5.775-0.044-79.854 0-153.913 24.807-214.893 67.135l1.244-0.817c-58.96 39.325-97.943 104.587-100.566 179.1l-0.011 0.386h128c0-66.601 87.941-122.88 192-122.88s192 56.279 192 122.88-87.941 122.88-192 122.88h-512v61.44h299.52c-2.335 1.597-4.649 3.195-6.943 4.833-58.96 39.325-97.943 104.587-100.566 179.1l-0.011 0.386c2.634 74.899 41.617 140.161 99.76 178.973l0.817 0.513c59.735 41.511 133.795 66.317 213.648 66.317 2.030 0 4.057-0.016 6.080-0.048l-0.305 0.004c1.719 0.028 3.748 0.044 5.781 0.044 79.851 0 153.909-24.807 214.886-67.135l-1.244 0.817c58.96-39.325 97.943-104.587 100.566-179.1l0.011-0.386h-128c0 66.601-87.921 122.88-192 122.88s-192-56.279-192-122.88 87.921-122.88 192-122.88c1.555 0.023 3.39 0.036 5.228 0.036 77.071 0 148.783-22.939 208.684-62.361l-1.432 0.885h299.52z" />
<glyph unicode="&#xe946;" glyph-name="subscription" d="M512-64c282.77 0 512 229.23 512 512s-229.23 512-512 512c-282.77 0-512-229.23-512-512v0 0c0-282.77 229.23-512 512-512v0zM332.8 263.68c4.547 16.876 8.724 32.051 13.455 47.104 1.752 13.884 12.705 24.747 26.483 26.344l0.141 0.013c7.697-0.462 14.762-2.801 20.857-6.562l-0.193 0.111c24.497-12.784 53.056-21.713 83.289-25.11l1.109-0.101c4.047-0.593 8.72-0.932 13.472-0.932 13.618 0 26.586 2.782 38.367 7.81l-0.639-0.242c12.526 4.278 21.373 15.946 21.373 29.679 0 10.832-5.504 20.379-13.867 25.996l-0.112 0.071c-8.641 6.824-18.517 12.682-29.127 17.138l-0.835 0.311c-9.298 4.096-18.964 7.967-28.058 11.571-25.305 9.458-46.666 19.576-67.033 31.232l2.214-1.167c-56.893 34.324-83.436 78.889-80.015 136.54 4.096 67.318 40.776 113.787 108.851 138.629 15.176 5.509 15.176 5.509 15.176 20.664v26.173c0 26.747 10.056 36.209 36.598 36.987h23.122c45.711 0 50.074-9.667 50.258-54.804 0-16.691 0-16.691 16.691-18.964 25.018-4.106 47.445-11.038 68.426-20.592l-1.682 0.686c12.356-4.763 20.963-16.54 20.963-30.328 0-4.023-0.733-7.875-2.072-11.429l0.074 0.223-4.362-14.971c-3.604-12.698-7.209-25.6-11.366-37.929-2.033-9.978-8.167-18.227-16.526-23.054l-0.166-0.088c-3.252-1.080-6.995-1.703-10.883-1.703-6.926 0-13.39 1.976-18.86 5.394l0.15-0.087c-24.179 12.144-52.689 19.254-82.86 19.254-3.668 0-7.31-0.105-10.926-0.312l0.5 0.023c-7.883-0.113-15.363-1.705-22.218-4.509l0.407 0.147c-8.896-3.203-15.518-10.708-17.419-19.937l-0.030-0.174c-0.037-0.521-0.059-1.13-0.059-1.743 0-8.839 4.413-16.648 11.156-21.343l0.085-0.056c11.52-8.875 24.73-16.413 38.921-22.004l1.097-0.381 9.482-3.994c28.801-11.26 52.339-22.269 75.094-34.542l-3.599 1.774c42.249-23.096 72.751-63.183 82.498-110.83l0.18-1.052c1.698-8.562 2.67-18.406 2.67-28.477 0-37.305-13.333-71.496-35.494-98.068l0.199 0.245c-21.868-26.467-51.369-45.921-85.117-55.028l-1.165-0.268c-8.192-2.273-9.093-4.096-8.724-10.813s0-18.964 0-27.873v-14.868c0.107-0.972 0.168-2.098 0.168-3.239 0-16.145-12.226-29.434-27.924-31.114l-0.137-0.012c-0.987-0.109-2.131-0.171-3.289-0.171-0.24 0-0.48 0.003-0.719 0.008l0.036-0.001h-45.507c-0.419-0.020-0.911-0.031-1.405-0.031-17.814 0-32.256 14.442-32.256 32.256 0 0.868 0.034 1.729 0.102 2.58l-0.007-0.112v41.923l-10.24 1.7c-31.422 4.329-59.864 12.839-86.246 25.044l1.869-0.776c-26.665 12.534-31.969 24.289-24.392 52.163z" />
<glyph unicode="&#xe947;" glyph-name="support" d="M984.617 493.732c-26.102 72.211-62.755 134.514-108.782 188.594l0.709-0.854c-44.559 52.694-98.622 95.791-159.765 127.001l-2.908 1.347c-58.767 30.049-128.191 47.658-201.728 47.658s-142.962-17.609-204.286-48.841l2.558 1.183c-64.164-32.527-118.325-75.63-162.34-127.598l-0.619-0.75c-45.367-53.251-82.055-115.589-106.84-183.648l-1.336-4.195c-24.886-67.275-39.284-144.982-39.284-226.051 0-0.737 0.001-1.473 0.004-2.21v0.113c0-0.057 0-0.125 0-0.193 0-30.979 2.039-61.481 5.991-91.381l-0.379 3.51 3.113-24.105 14.746-147.456c4.244-39.428 37.341-69.857 77.544-69.857 0.005 0 0.009 0 0.014 0h-0.001c2.56 0 5.161 0.123 7.721 0.389l97.526 9.687c39.576 4.009 70.203 37.153 70.203 77.45 0 2.656-0.133 5.281-0.393 7.868l0.027-0.326-17.756 177.623c-4.168 39.502-37.301 70.017-77.561 70.017-2.725 0-5.418-0.14-8.071-0.413l0.333 0.028-84.828-8.499c1.987 276.029 191.324 499.876 423.772 499.876s421.765-223.805 423.772-499.876l-84.296 8.376c-2.56 0.246-5.161 0.389-7.721 0.389-0.006 0-0.014 0-0.021 0-40.247 0-73.371-30.495-77.528-69.64l-0.029-0.341-17.756-177.623c-0.233-2.261-0.366-4.886-0.366-7.542 0-40.297 30.628-73.441 69.874-77.423l0.329-0.027 97.526-9.687c2.56-0.184 5.161-0.307 7.721-0.307v0c0.006 0 0.014 0 0.021 0 40.247 0 73.371 30.495 77.528 69.64l0.029 0.341 16.609 166.195 0.696 5.325c3.572 26.39 5.612 56.892 5.612 87.871 0 0.068 0 0.136 0 0.203v-0.010c0.002 0.542 0.002 1.182 0.002 1.823 0 81.179-14.436 158.986-40.88 230.995l1.494-4.65z" />
<glyph unicode="&#xe948;" glyph-name="technology" d="M689.644 548.352c-11.778-0.090-23.239-1.166-34.387-3.151l1.229 0.181v336.404c0.005 0.332 0.008 0.725 0.008 1.118 0 42.113-33.76 76.34-75.693 77.094l-0.071 0.001h-361.595c-42.010-0.732-75.784-34.96-75.784-77.076 0-0.4 0.003-0.799 0.009-1.198l-0.001 0.060v-867.574c-0.005-0.332-0.008-0.724-0.008-1.117 0-42.12 33.772-76.352 75.714-77.095l0.070-0.001h361.595c42.015 0.755 75.784 34.992 75.784 77.116 0 0.393-0.003 0.785-0.009 1.177l0.001-0.059v98.673c9.914-1.798 21.376-2.874 33.071-2.969l0.086-0.001c117.29 2.318 211.484 97.946 211.484 215.574 0 1.224-0.010 2.445-0.031 3.664l0.002-0.184c0.019 1.073 0.030 2.338 0.030 3.606 0 117.673-94.185 213.348-211.282 215.751l-0.224 0.004zM673.792 154.46c-34.103 23.258-60.061 56.223-74.117 94.901l-0.431 1.355h74.547v-96.256zM590.377 282.112c-2.923 13.729-4.597 29.503-4.597 45.668 0 17.079 1.869 33.721 5.412 49.734l-0.283-1.522h82.883v-93.88h-83.415zM508.457 329.052c0.064 16.709 2.234 32.883 6.258 48.307l-0.298-1.347h44.134c-2.855-14.466-4.489-31.098-4.489-48.112 0-16.176 1.477-32.007 4.303-47.366l-0.244 1.598h-43.704c-3.719 14.045-5.888 30.182-5.96 46.814v0.044zM600.064 407.245c14.549 39.809 40.156 72.683 73.093 95.833l0.635 0.423v-96.256h-73.728zM705.577 503.501c33.569-23.575 59.175-56.449 73.284-94.873l0.444-1.383h-73.728v96.256zM566.456 407.245h-41.37c19.657 44.172 54.779 78.497 98.331 96.644l1.223 0.452c-26.113-26.502-46.147-59.069-57.793-95.391l-0.472-1.705zM565.719 250.778c11.666-37.741 31.427-70.070 57.363-96.276l-0.019 0.020c-43.922 18.772-78.351 52.709-97.303 95.083l-0.469 1.173h40.509zM705.577 154.522v96.256h74.547c-14.499-40.060-40.478-73.047-73.936-95.884l-0.672-0.433zM705.577 282.132v93.819h82.862c3.261-14.491 5.129-31.134 5.129-48.212 0-16.165-1.674-31.939-4.857-47.158l0.261 1.49h-83.456zM820.818 376.013h44.052c3.782-14.087 5.954-30.26 5.954-46.94s-2.172-32.853-6.249-48.251l0.295 1.311h-43.622c2.552 13.684 4.011 29.428 4.011 45.513 0 17.083-1.646 33.782-4.789 49.946l0.266-1.64zM854.262 407.306h-41.37c-12.084 38.022-32.085 70.589-58.195 97.128l0.032-0.032c44.741-18.636 79.828-52.978 98.983-95.981l0.468-1.176zM485.376 898.56h7.578c8.641 0 15.647-7.005 15.647-15.647s-7.005-15.647-15.647-15.647v0h-7.578c-8.641 0-15.647 7.005-15.647 15.647s7.005 15.647 15.647 15.647v0zM328.868 898.56h108.544c8.641 0 15.647-7.005 15.647-15.647s-7.005-15.647-15.647-15.647v0h-108.544c-8.641 0-15.647 7.005-15.647 15.647s7.005 15.647 15.647 15.647v0zM399.913-30.392c-0.415-0.013-0.903-0.021-1.393-0.021-25.653 0-46.449 20.796-46.449 46.449s20.796 46.449 46.449 46.449c25.653 0 46.448-20.796 46.449-46.448v0c0.004-0.233 0.007-0.507 0.007-0.783 0-25.013-20.1-45.332-45.029-45.686h-0.033zM611.082 90.317h-422.359v714.035h422.359v-271.811c-78.918-35.211-132.929-112.986-132.929-203.377s54.011-168.166 131.52-202.814l1.409-0.563v-35.512zM756.367 154.644c25.918 26.185 45.679 58.515 56.902 94.606l0.442 1.65h40.489c-19.425-43.574-53.879-77.53-96.628-95.838l-1.205-0.459z" />
<glyph unicode="&#xe949;" glyph-name="text" d="M787.354-64.123h175.923l-376.771 1023.713h-163.84l-380.989-1023.713h175.206l82.616 239.043h405.934zM501.76 755.077h4.28l150.282-437.33h-306.975z" />
<glyph unicode="&#xe94a;" glyph-name="thankyou-popup" d="M900.28 960h-756.347c-41.533 0-41.533 0-41.533-38.912v-770.048c0-38.912-0.573-51.2 40.96-51.2h245.76l132.997-163.84 133.243 163.84h245.76c41.533 0 40.694 11.264 40.694 50.176v770.048c1.106 39.936 1.106 39.936-41.533 39.936v0zM285.164 411.484c13.989-0.696 25.068-12.208 25.068-26.307 0-14.546-11.792-26.337-26.337-26.337s-26.337 11.792-26.337 26.337c0 0.004 0 0.007 0 0.011v-0.001c0.373 14.606 12.303 26.304 26.964 26.304 0.226 0 0.452-0.003 0.676-0.008l-0.033 0.001zM378.655 591.708v-262.492h-153.6v262.554h153.6zM396.718 578.806v0c29.665 14.491 54.694 34.052 74.957 57.803l0.266 0.319c19.259 19.927 36.216 42.283 50.314 66.508l0.886 1.649c8.748 17.29 15.105 37.378 17.975 58.573l0.109 0.983c1.55 14.174 5.828 27.066 12.302 38.554l-0.26-0.502c6.182 8.307 15.972 13.63 27.005 13.63 0.305 0 0.61-0.004 0.913-0.012l-0.045 0.001c163.471 9.38 27.546-247.091 71.537-142.070-4.526-10.772-10.527-20.808-13.558-26.624s-2.99-7.168 0.778-8.602c8.037-2.286 17.267-3.601 26.805-3.601 0.657 0 1.312 0.006 1.965 0.019l-0.098-0.001c33.219-1.372 93.757 6.144 118.968-31.58 6.862-10.672 10.939-23.701 10.939-37.682 0-4.438-0.411-8.781-1.197-12.991l0.068 0.435c-2.273-11.612-13.332-27.341-7.557-43.766 1.639-3.799 2.724-8.205 3.025-12.825l0.006-0.119c-6.385-13.417-11.597-29.034-14.857-45.355l-0.216-1.298c-1.003-4.681-1.577-10.059-1.577-15.57 0-1.086 0.022-2.166 0.066-3.241l-0.005 0.154c0 93.716 19.64-98.959-64.737-139.264-12.084-5.452-26.197-8.629-41.052-8.629-0.407 0-0.813 0.002-1.219 0.007l0.062-0.001c-2.846-0.055-6.203-0.086-9.567-0.086-22.092 0-43.868 1.348-65.252 3.967l2.566-0.256c-59.187 11.243-108.794 23.903-157.229 39.201l9.63-2.624-52.736 18.944v236.012z" />
<glyph unicode="&#xe94b;" glyph-name="tick" d="M245.76 161.28l-245.76 491.52 163.84 81.92 163.84-327.68 614.4 327.68 81.92-163.84z" />
<glyph unicode="&#xe94c;" glyph-name="today-leads" d="M281.764 587.059c15.951-45.336 38.69-84.479 67.399-118.408l-0.45 0.546c7.378-8.411 15.017-16.076 23.116-23.234l0.272-0.236c2.212-2.048 4.342-4.096 6.615-5.939 24.083-21.505 55.668-35.062 90.389-36.324l0.256-0.007c34.738 1.247 66.126 14.64 90.262 36.032l-0.15-0.131c1.843 1.495 3.584 3.256 5.407 4.833 8.785 7.638 16.766 15.574 24.192 24.010l0.241 0.279c28.683 33.673 51.722 73.207 67.006 116.406l0.803 2.603c12.882 3.973 26.378 29.327 31.867 61.706 5.98 35.205 0.328 65.925-12.636 70.943-0.614 11.428-1.638 22.999-3.174 34.55-5.222 99.533-34.488 144.036-77.824 163.84-32.188 25.926-73.572 41.614-118.621 41.614-2.586 0-5.159-0.052-7.719-0.154l0.368 0.012c-2.269 0.096-4.931 0.151-7.606 0.151-44.707 0-85.837-15.318-118.427-40.991l0.409 0.31c-47.677-20.787-78.868-70.287-80.65-187.72-0.287-3.748-0.532-7.434-0.737-11.141-14.131-2.867-20.48-34.816-14.336-71.496 5.796-33.915 20.255-60.068 33.731-62.054zM904.151 297.554c-31.076 24.401-70.753 39.132-113.87 39.132-14.484 0-28.58-1.662-42.107-4.807l1.25 0.245c-54.918 10.578-103.182 33.808-143.369 66.57l0.583-0.46c-0.758-29.594-62.28-53.473-138.117-53.473s-137.359 23.9-138.097 53.473c-173.343-139.080-289.464 22.876-289.464-306.36 0-90.112 231.895-133.612 426.701-133.612h1.72c0.487-0.001 1.064-0.001 1.642-0.001 72.659 0 143.937 5.914 213.378 17.286l-7.578-1.024c18.67-14.302 40.675-25.362 64.562-31.848l1.322-0.306c14.196-3.981 30.508-6.301 47.352-6.369h0.039c107.048 2.235 192.972 89.541 192.972 196.916 0 1.202-0.011 2.402-0.032 3.599l0.003-0.18c0.001 0.249 0.002 0.544 0.002 0.839 0 65.085-30.71 122.997-78.431 160.036l-0.46 0.343zM790.098-19.476c-1.753-0.071-3.811-0.111-5.878-0.111-86.12 0-155.935 69.814-155.935 155.935s69.814 155.935 155.935 155.935c86.12 0 155.935-69.814 155.935-155.935 0-0.004 0-0.008 0-0.013v0.001c0.015-0.789 0.023-1.72 0.023-2.653 0-83.511-66.824-151.415-149.918-153.156l-0.162-0.003zM744.325 150.262l21.299-43.131s34.591 87.654 89.149 116.859c-1.746-7.68-2.746-16.501-2.746-25.554 0-12.729 1.978-24.997 5.643-36.512l-0.234 0.852c-23.962-5.571-73.196-68.178-89.149-98.775-17.592 24.557-40.369 44.293-66.824 57.879l-1.047 0.489z" />
<glyph unicode="&#xe94d;" glyph-name="total-profitmozo" d="M102.4 960h252.068v-256h-252.068v256zM669.532 608.010h252.068v-256h-252.068v256zM669.532 192.020h252.068v-256.020h-252.068v256zM196.915 704h63.017v-672.010h-63.017v672.010zM259.932 512h409.6v-64h-409.6v64zM259.932 95.99h409.6v-64h-409.6v64z" />
<glyph unicode="&#xe94e;" glyph-name="total-profitpage" d="M475.587 384v-64h279.9v64h-279.9zM475.587 224.010v-64h279.9v64h-279.9zM413.389 160.010v223.99h-124.396v-223.99h124.396zM755.405 512v128h-466.412v-128h466.493zM102.4 960v-1024h839.68v1024h-839.68zM593.777 908.8c0.651 0.032 1.414 0.050 2.18 0.050 26.343 0 47.698-21.355 47.698-47.698 0-1.25-0.048-2.489-0.143-3.715l0.010 0.163c0.020-0.521 0.031-1.134 0.031-1.749 0-27.497-22.29-49.787-49.787-49.787s-49.787 22.29-49.787 49.787c0 0.615 0.011 1.227 0.033 1.837l-0.003-0.088c-0.084 1.063-0.133 2.303-0.133 3.553 0 26.343 21.355 47.698 47.698 47.698 0.774 0 1.544-0.018 2.309-0.055l-0.108 0.004zM879.882 0h-715.284v735.99h715.284v-735.99zM792.801 806.4c-0.657-0.032-1.427-0.051-2.201-0.051-26.343 0-47.698 21.355-47.698 47.698 0 1.25 0.048 2.489 0.143 3.716l-0.010-0.163c-0.020 0.521-0.031 1.134-0.031 1.749 0 27.497 22.29 49.787 49.787 49.787s49.787-22.29 49.787-49.787c0-0.615-0.011-1.227-0.033-1.837l0.003 0.088c0.084-1.063 0.132-2.302 0.132-3.552 0-26.343-21.355-47.698-47.698-47.698-0.767 0-1.53 0.018-2.288 0.054l0.107-0.004z" />
<glyph unicode="&#xe94f;" glyph-name="total-vistors" d="M512 960c108.327-1.413 195.599-89.558 195.599-198.087 0-0.863-0.006-1.724-0.017-2.584l0.001 0.131c0.039-1.46 0.061-3.179 0.061-4.903 0-108.052-87.593-195.645-195.645-195.645s-195.645 87.593-195.645 195.645c0 1.724 0.022 3.443 0.067 5.156l-0.005-0.253c-0.010 0.729-0.015 1.59-0.015 2.453 0 108.529 87.272 196.674 195.466 198.086l0.133 0.001zM582.021 513.024h-140.063c-125.315-1.781-226.217-103.784-226.217-229.354 0-0.944 0.006-1.886 0.017-2.827l-0.001 0.143v-231.834c-0.007-0.46-0.011-1.003-0.011-1.547 0-61.1 49.095-110.734 109.988-111.604l0.082-0.001h372.081c61.078 0.725 110.313 50.407 110.313 111.588 0 0.449-0.003 0.897-0.008 1.345l0.001-0.068v232.12c0.010 0.804 0.016 1.754 0.016 2.705 0 125.57-100.902 227.574-226.050 229.352l-0.168 0.002zM779.141 454.144c12.436-4.375 26.775-6.902 41.705-6.902 0.055 0 0.11 0 0.164 0h-0.008c74.216 2.152 133.559 62.829 133.559 137.367 0 74.617-59.47 135.343-133.597 137.369l-0.187 0.004c-65.532-0.691-119.812-48.009-131.273-110.316l-0.127-0.829c-1.564-7.65-2.459-16.442-2.459-25.444 0-0.235 0.001-0.469 0.002-0.704v0.036c-0.003-0.33-0.004-0.72-0.004-1.11 0-59.624 38.092-110.352 91.267-129.175l0.959-0.296zM821.002 415.724h-14.705c22.37-38.374 35.576-84.468 35.576-133.647 0-0.419-0.001-0.838-0.003-1.257v0.064-231.834c0-0.125 0.001-0.274 0.001-0.422 0-9.998-1.022-19.757-2.967-29.178l0.16 0.929h86.016c54.794 0.746 98.926 45.34 98.926 100.241 0 0.442-0.003 0.884-0.009 1.325l0.001-0.067v85.811c0.009 0.724 0.014 1.579 0.014 2.434 0 112.664-90.567 204.176-202.868 205.702l-0.144 0.002zM202.957 722.186c-72.795-3.994-130.31-63.996-130.31-137.431s57.516-133.437 129.957-137.416l0.353-0.015c0.046 0 0.101 0 0.156 0 14.93 0 29.269 2.527 42.613 7.177l-0.908-0.275c54.102 19.136 92.165 69.848 92.165 129.449 0 0.398-0.002 0.795-0.005 1.192v-0.061c0.001 0.191 0.002 0.417 0.002 0.643 0 9.010-0.895 17.812-2.602 26.32l0.142-0.851c-11.592 63.217-65.947 110.596-131.492 111.267l-0.072 0.001zM182.088 280.986c0 0.18-0.001 0.394-0.001 0.608 0 49.176 13.205 95.267 36.263 134.922l-0.689-1.283h-14.705c-112.409-1.474-202.966-92.942-202.966-205.562 0-0.697 0.003-1.393 0.010-2.089l-0.001 0.106v-85.709c-0.006-0.399-0.009-0.869-0.009-1.341 0-54.88 44.098-99.46 98.793-100.239l0.073-0.001h86.016c-1.785 8.495-2.806 18.256-2.806 28.256 0 0.147 0 0.293 0.001 0.439v-0.023 231.916z" />
<glyph unicode="&#xe950;" glyph-name="total_project" d="M977.285 669.184h-747.295c-30.488-2.792-55.286-24.257-63.003-52.745l-0.116-0.503-144.568-450.56-10.24-34.816c-1.303-3.717-2.056-8.001-2.056-12.462 0-21.423 17.366-38.789 38.789-38.789 0.702 0 1.399 0.019 2.092 0.055l-0.097-0.004h747.315c25.887 1.43 47.897 16.714 58.86 38.509l0.184 0.403c2.168 3.518 3.631 7.692 4.086 12.164l0.010 0.124 99.779 311.296 54.989 172.032c1.53 4.145 2.415 8.933 2.415 13.927 0 22.768-18.393 41.24-41.13 41.369h-0.012zM203.51 693.76h731.013v73.728h-454.083l-20.357 49.152h-358.38l-20.378-49.152h-81.449v-577.536l142.541 450.56c6.228 29.2 30.821 51.124 60.88 53.236l0.212 0.012z" />
<glyph unicode="&#xe951;" glyph-name="training" d="M970.527 960.287h-734.556c-18.337-0.42-33.042-15.385-33.042-33.784 0-0.255 0.003-0.509 0.008-0.763l-0.001 0.038v-244.634c-64.8-16.255-112.025-73.988-112.025-142.751 0-11.1 1.231-21.913 3.563-32.31l-0.185 0.981c12.061-66.531 69.544-116.326 138.657-116.326 9.863 0 19.489 1.014 28.779 2.944l-0.913-0.159c64.8 16.255 112.025 73.988 112.025 142.751 0 11.1-1.231 21.913-3.563 32.31l0.185-0.981c-10.373 53.398-49.028 95.722-99.431 111.202l-1.023 0.27-1.556 224.297h679.444v-910.725h-509.583v170.68l131.482-26.624c3.043-1.046 6.549-1.651 10.196-1.651 11.611 0 21.791 6.123 27.489 15.316l0.080 0.138 143.012 238.756c3.472 5.399 5.534 11.989 5.534 19.062 0 10.438-4.493 19.826-11.65 26.337l-0.029 0.026-60.58 46.080c-5.642 5.057-13.136 8.148-21.353 8.148-10.194 0-19.277-4.759-25.147-12.177l-0.051-0.067c-1.224-1.51-2.364-3.198-3.35-4.983l-0.090-0.178-95.457-174.531-126.976 56.832c-3.734 1.671-8.092 2.645-12.677 2.645-0.151 0-0.302-0.001-0.453-0.003h-323.377c-18.301-0.465-32.96-15.411-32.96-33.782 0-0.256 0.003-0.511 0.008-0.765l-0.001 0.038v-386.212h929.567c18.319 0.442 33.001 15.398 33.001 33.783 0 0.255-0.003 0.51-0.008 0.764l0.001-0.038v955.535c0.005 0.216 0.008 0.471 0.008 0.726 0 18.385-14.682 33.34-32.96 33.782l-0.041 0.001zM437.309 789.524h226.488v-56.852h-226.488v56.852zM437.309 675.697h396.349v-56.934h-396.349v56.934z" />
<glyph unicode="&#xe952;" glyph-name="linkedin" d="M1024 324.198v-388.321h-219.484v362.312c0 91.013-31.744 153.129-111.186 153.129-52.236-0.733-96.373-34.603-112.388-81.502l-0.252-0.848c-4.699-14.286-7.409-30.73-7.409-47.806 0-2.49 0.058-4.967 0.172-7.429l-0.013 0.349v-378.204h-219.566s2.949 613.642 0 677.212h219.566v-95.99c-0.451-0.717-1.024-1.495-1.434-2.191h1.434v2.212c37.77 67.307 108.681 112.043 190.041 112.043 2.742 0 5.471-0.051 8.188-0.151l-0.392 0.012c144.425 0 252.723-96.809 252.723-304.824zM124.232 939.52c-75.080 0-124.232-50.483-124.232-116.941-0.013-0.648-0.021-1.413-0.021-2.179 0-63.544 51.513-115.057 115.057-115.057 2.212 0 4.409 0.062 6.59 0.186l-0.303-0.014h1.454c76.575 0 124.191 52.060 124.191 117.064 0.009 0.546 0.015 1.19 0.015 1.836 0 63.702-51.641 115.343-115.343 115.343-2.606 0-5.193-0.086-7.756-0.257l0.348 0.019zM13.025-64.123h219.464v677.233h-219.464v-677.233z" />
<glyph unicode="&#xe953;" glyph-name="underline" d="M31.908 896.717q81.347-2.048 98.017-25.969 11.387-16.691 11.387-142.029v-222.044c-0.159-6.194-0.249-13.486-0.249-20.799 0-48.45 3.963-95.974 11.584-142.267l-0.685 5.042c7.895-49.664 27.461-93.719 55.801-130.694l-0.505 0.687c31.489-36.329 71.686-64.292 117.38-80.732l1.957-0.615c52.448-19.563 113.047-30.885 176.29-30.885 4.595 0 9.176 0.060 13.743 0.179l-0.675-0.014c3.042-0.057 6.629-0.089 10.224-0.089 56.884 0 111.884 8.065 163.919 23.114l-4.159-1.030c46.345 13.311 86.761 33.647 122.352 60.108l-1.008-0.716c29.787 22.483 54.654 49.658 73.943 80.665l0.727 1.255c12.558 23.553 22.090 50.895 27.124 79.781l0.238 1.648c7.306 44.783 11.481 96.4 11.481 148.992 0 18.911-0.54 37.696-1.605 56.341l0.118-2.581q-9.257 251.351-14.602 264.008 0 7.332-0.983 20.664c-0.676 8.888-1.004 14.889-1.004 18.002-0.036 0.61-0.057 1.324-0.057 2.042 0 9.803 3.826 18.712 10.067 25.316l-0.016-0.018c15.457 5.816 33.363 9.852 51.995 11.303l0.68 0.043c20.235 0.756 39.421 3.87 57.724 9.079l-1.711-0.416c1.184 5.879 2.11 12.964 2.576 20.174l0.025 0.49c-0.688 12.576-2.112 24.251-4.255 35.672l0.261-1.675-11.919 1.249c-33.741-4.366-72.769-6.858-112.379-6.858-6.444 0-12.872 0.066-19.284 0.197l0.959-0.016-136.684 6.676h-56.013l-1.331-57.344 9.339-2.048 66.683 1.331c0.243 0.003 0.529 0.005 0.816 0.005 20.056 0 38.071-8.736 50.448-22.61l0.058-0.067c10.071-15.84 16.050-35.139 16.050-55.835 0-0.948-0.013-1.894-0.038-2.836l0.003 0.139 2.724-39.363q4.096-57.344 9.011-106.332t7.25-81.633q2.335-32.768 2.335-85.361c0.252-6.508 0.396-14.148 0.396-21.823 0-46.379-5.248-91.532-15.184-134.898l0.779 4.042c-8.804-28.947-20.821-54.173-35.987-77.137l0.679 1.095c-11.94-16.807-26.315-30.966-42.782-42.307l-0.574-0.374c-18.827-14.399-40.751-25.981-64.459-33.574l-1.527-0.423c-36.776-11.862-79.087-18.701-122.995-18.701-1.537 0-3.071 0.008-4.604 0.025l0.234-0.002c-43.402 0.493-84.001 12.051-119.242 31.977l1.236-0.643c-26.802 14.465-48.51 35.32-63.587 60.59l-0.413 0.748c-20.916 39.058-33.43 85.354-33.995 134.52l-0.002 0.177-9.339 186.696-0.799 152.678q0 3.973-0.328 16.998c-0.225 8.663-0.328 15.872-0.328 21.668q0 78.684 8.663 88.064c11.439 10.708 26.861 17.285 43.818 17.285 3.124 0 6.195-0.223 9.2-0.654l-0.344 0.040c0.493-0.002 1.077-0.002 1.661-0.002 28.586 0 56.67 2.153 84.097 6.305l-3.080-0.383v6.001l-1.249 42.68 0.676 9.236q-20.009-1.331-57.344-1.331l-97.341-3.338q-54.682-2.048-112.026-2.048-22.671 0-110.592 4.669-34.755 2.806-74.732 2.806-18.043 0-26.624-0.758l2.048-58.675c8.773-1.385 19.090-2.306 29.574-2.555l0.285-0.005zM1002.66 21.258h-981.402c-0.238 0.010-0.517 0.016-0.797 0.016-11.311 0-20.48-9.169-20.48-20.48 0-0.308 0.007-0.614 0.020-0.919l-0.002 0.043v-42.68c-0.009-0.231-0.015-0.501-0.015-0.773 0-11.311 9.169-20.48 20.48-20.48 0.279 0 0.556 0.006 0.832 0.017l-0.040-0.001h981.463c0.243-0.010 0.528-0.016 0.814-0.016 11.311 0 20.48 9.169 20.48 20.48 0 0.279-0.006 0.557-0.017 0.834l0.001-0.040v42.66c0.012 0.262 0.019 0.568 0.019 0.876 0 11.311-9.169 20.48-20.48 20.48-0.288 0-0.574-0.006-0.858-0.018l0.041 0.001z" />
<glyph unicode="&#xe954;" glyph-name="update-logs" d="M688.599 107.336c7.52 5.418 14.053 10.664 20.306 16.219l-0.256-0.224c2.438 1.969 4.623 3.979 6.673 6.119l0.024 0.025s-2.232-1.229-7.803-4.915c-6.032-4.182-12.967-8.269-20.199-11.85l-0.978-0.438c-23.007-12.902-49.651-23.84-77.67-31.436l-2.488-0.575c-16.005-3.972-35.024-7.022-54.477-8.525l-1.229-0.076c-4.497-0.295-9.75-0.462-15.043-0.462s-10.545 0.168-15.754 0.499l0.711-0.036h-7.864l-7.803 1.229c-5.571 1.229-11.141 1.229-16.712 2.458-12.708 1.71-23.662 3.86-34.384 6.59l2.066-0.446c-12.748 3.29-23.143 6.66-33.277 10.556l2.086-0.705c-12.344 4.393-22.636 8.959-32.529 14.181l1.338-0.644c-11.209 5.651-20.689 11.374-29.699 17.718l0.74-0.494c-19.701 12.948-36.848 27.121-52.309 42.948l-0.058 0.060c-7.803 7.393-14.479 17.224-22.282 24.576-6.676 8.602-13.373 18.432-18.944 27.075s-11.141 18.432-15.585 27.075c-4.465 9.851-8.909 18.432-13.373 27.075-6.384 14.536-12.483 32.154-17.255 50.31l-0.583 2.611c-1.106 3.686-2.232 8.622-3.338 12.288s-1.106 8.622-2.232 12.288l-3.379 22.282c-1.106 13.537-2.232 25.846-2.232 35.676 0 15.995 1.126 27.075 1.126 29.532l43.459-49.152 71.311 77.517-155.996 179.63-172.708-173.527 67.973-82.452 47.923 48.005c0-4.915 2.232-18.432 3.338-39.383 2.212-13.537 5.55-28.406 8.888-46.838 2.232-8.602 5.571-18.432 7.803-27.075 1.095-5.61 2.639-10.555 4.65-15.253l-0.185 0.487c2.232-4.915 3.338-9.851 5.571-14.766 9.276-24.292 19.419-44.941 31.18-64.507l-1.013 1.817c6.676-9.851 13.373-20.931 20.050-31.99 7.803-9.851 15.606-20.91 23.409-30.72 8.909-9.851 17.818-19.681 26.747-28.303 9.193-8.965 19.004-17.431 29.31-25.28l0.775-0.566c19.45-15.255 41.372-29.173 64.627-40.824l2.24-1.016c12.288-4.915 23.388-11.080 35.656-14.766 10.46-4.030 22.849-7.451 35.648-9.676l1.216-0.175c12.288-2.458 24.576-4.915 36.864-6.144s24.576-2.458 35.656-2.458h25.62l8.909 1.229c12.241 1.098 23.268 2.843 34.040 5.261l-1.722-0.325c21.385 3.785 40.453 9.764 58.371 17.844l-1.539-0.621c29.235 12.825 54.439 28.045 77.358 46.043l-0.763-0.577zM908.104 438.374v0s-1.106 14.766-4.465 41.841c-2.232 13.537-5.571 28.303-8.909 46.756-6.523 23.917-12.99 43.164-20.369 61.954l1.425-4.118c-9.646 25.092-19.759 46.168-31.308 66.315l1.223-2.315c-6.676 9.851-13.373 20.931-20.050 31.99-7.803 9.851-15.606 20.931-24.576 30.72-8.834 10.147-17.932 19.388-27.563 28.047l-0.29 0.257c-4.465 4.915-10.035 8.622-14.479 13.537-4.568 4.624-9.687 8.688-15.255 12.089l-0.351 0.199c-19.335 15.074-41.332 28.26-64.861 38.604l-1.986 0.779-17.838 8.622c-5.571 2.458-12.288 3.686-17.818 6.144l-17.838 6.144c-6.676 1.229-12.288 2.458-18.944 3.686s-12.288 2.458-17.818 3.686c-6.697 1.229-12.288 1.229-18.944 2.458-6.697 0-12.288 1.229-18.944 1.229h-43.397l-8.909-1.229c-11.141-1.229-22.282-3.686-32.317-4.915-22.451-5.19-41.789-11.519-60.349-19.333l2.411 0.901c-17.81-7.508-32.823-15.338-47.118-24.214l1.427 0.826c-13.373-8.54-23.409-15.913-32.215-22.077-8.909-7.393-15.606-12.288-18.944-15.995-2.429-1.969-4.607-3.979-6.651-6.117l-0.025-0.027s2.232 1.229 7.803 4.915c6.153 4.742 13.081 9.231 20.367 13.14l0.809 0.397c9.718 5.955 21.079 11.729 32.899 16.619l1.651 0.605c12.441 5.578 27.628 11.033 43.263 15.414l2.427 0.581c15.86 4.36 34.791 7.856 54.182 9.792l1.483 0.12c7.68 0.821 16.591 1.29 25.611 1.29 1.962 0 3.919-0.022 5.87-0.066l-0.29 0.005h15.606c5.571-1.229 11.141-1.229 16.712-2.458s11.141-1.229 16.712-2.458 10.035-2.458 15.606-3.686 10.035-2.458 15.606-3.686c5.571-2.458 10.015-3.686 15.606-6.144s11.141-3.686 15.606-6.144l15.606-7.393c5.571-2.458 10.015-4.915 15.606-7.393l14.479-8.622c20.022-13.333 37.501-27.487 53.561-43.093l-0.088 0.085c3.968-3.772 7.616-7.784 10.959-12.047l0.182-0.241 11.141-12.288c7.803-8.622 13.373-18.432 20.070-27.075 5.571-8.602 11.141-18.432 16.712-27.075 4.57-7.876 9.064-17.194 12.871-26.858l0.502-1.445c7.080-15.059 13.203-32.717 17.46-51.090l0.357-1.831c4-13.428 7.141-29.315 8.814-45.637l0.095-1.139c1.106-13.537 2.232-25.846 2.232-35.676 0-19.681-1.106-31.99-1.106-31.99v-3.686l-44.564 50.463-71.434-77.722 158.228-177.213 172.728 173.527-67.994 82.452z" />
<glyph unicode="&#xe955;" glyph-name="video-training" d="M965.591 707.891l-248.013-125.747v121.119c0.002 0.222 0.004 0.485 0.004 0.748 0 39.143-31.375 70.957-70.348 71.668l-0.067 0.001h-576.778c-39.031-0.723-70.394-32.533-70.394-71.668 0-0.263 0.001-0.526 0.004-0.789v0.040-531.005c-0.002-0.223-0.004-0.486-0.004-0.749 0-39.135 31.363-70.946 70.326-71.667l0.068-0.001h576.778c39.022 0.734 70.373 32.54 70.373 71.668 0 0.263-0.001 0.526-0.004 0.789v-0.040 121.119l247.992-125.809c32.195-16.384 58.47 0.512 58.47 37.396v465.531c0 36.884-26.276 53.699-58.409 37.396z" />
<glyph unicode="&#xe956;" glyph-name="view" d="M511.693 714.24c-195.502 0-372.777-96.788-503.685-254.423-4.991-5.855-8.027-13.509-8.027-21.873s3.036-16.017 8.067-21.92l-0.039 0.047c130.908-157.819 308.183-254.792 503.685-254.792s372.736 96.788 503.706 254.423c4.991 5.855 8.027 13.509 8.027 21.873s-3.036 16.017-8.067 21.92l0.039-0.047c-130.908 157.819-308.183 254.792-503.706 254.792zM525.742 243.036c-129.864-7.414-236.851 89.559-228.659 207.258 6.717 96.973 93.573 175.882 200.704 181.985 129.864 7.414 236.851-89.559 228.659-207.258-6.84-96.973-93.614-175.677-200.684-181.985zM519.229 332.984c-69.857-3.994-127.549 48.292-123.146 111.616 6.668 54.687 52.271 96.796 107.938 97.934l0.115 0.002c69.857 4.096 127.549-48.292 123.146-111.616-6.667-54.681-52.26-96.785-107.916-97.933l-0.116-0.002z" />
<glyph unicode="&#xe957;" glyph-name="warning" d="M1009.009 113.684l-422.441 741.253c-15.051 26.298-42.942 43.732-74.906 43.732s-59.855-17.434-74.684-43.312l-0.222-0.42-425.452-746.598c-7.284-12.594-11.581-27.703-11.581-43.817s4.298-31.224 11.81-44.246l-0.228 0.429c15.089-26.268 42.962-43.687 74.908-43.745h851.157c47.845 0.313 86.509 39.17 86.509 87.059 0 0.202-0.001 0.404-0.002 0.606v-0.031c0 0.026 0 0.056 0 0.087 0 18.268-5.555 35.239-15.067 49.315l0.199-0.312zM466.944 629.924h89.58c6.806-0.092 12.288-5.631 12.288-12.451 0-0.022 0-0.044 0-0.066v0.003l-24.576-344.31c0-0.025 0-0.054 0-0.083 0-6.819-5.482-12.359-12.28-12.451h-40.232c-6.806 0.092-12.288 5.631-12.288 12.451 0 0.029 0 0.058 0 0.087v-0.004l-24.781 344.289c0 0.031 0 0.067 0 0.103 0 6.815 5.485 12.35 12.281 12.43h0.008zM511.754 95.396c-0.237-0.003-0.518-0.005-0.799-0.005-33.706 0-61.030 27.324-61.030 61.030s27.324 61.030 61.030 61.030c33.704 0 61.027-27.321 61.030-61.025v0c0.001-0.092 0.001-0.2 0.001-0.309 0-33.333-26.894-60.385-60.167-60.639h-0.024z" />
<glyph unicode="&#xe958;" glyph-name="webinar" d="M1011.466 215.204l-118.252 83.64v459.96c-0.323 20.694-17.169 37.346-37.908 37.356h-48.211l-280.146-1.126h-359.383c-20.709-0.020-37.531-16.634-37.888-37.261v-457.802l-117.105-84.767c-7.715-11.536-12.313-25.726-12.313-40.989 0-41.081 33.303-74.383 74.383-74.383 0.397 0 0.794 0.003 1.19 0.009l-0.060-0.001h872.448c0.246-0.003 0.536-0.005 0.827-0.005 41.183 0 74.568 33.385 74.568 74.568 0 15.179-4.536 29.299-12.325 41.079l0.173-0.278zM533.832 774.636c0.155 0.021 0.335 0.033 0.518 0.033 2.262 0 4.096-1.834 4.096-4.096 0-0.163-0.010-0.324-0.028-0.482l0.002 0.019c-0.102-1.215-1.074-2.173-2.286-2.252h-0.007c-0.155-0.021-0.335-0.033-0.518-0.033-2.262 0-4.096 1.834-4.096 4.096 0 0.163 0.010 0.324 0.028 0.482l-0.002-0.019c0.102 1.215 1.074 2.173 2.286 2.252h0.007zM499.384 774.636c1.163 5.119 5.121 9.077 10.15 10.223l0.090 0.017c0.692 0.133 1.488 0.209 2.302 0.209 7.069 0 12.8-5.731 12.8-12.8 0-0.739-0.063-1.464-0.183-2.169l0.011 0.076c-1.159-5.121-5.119-9.081-10.15-10.223l-0.090-0.017c-0.831-0.198-1.785-0.312-2.766-0.312-6.866 0-12.431 5.566-12.431 12.431 0 0.908 0.097 1.794 0.282 2.646l-0.015-0.082zM182.497 464.957v259.932c0.185 12.481 10.346 22.528 22.853 22.528 0.037 0 0.074 0 0.11 0h602.782c0.091 0.001 0.2 0.001 0.308 0.001 17.517 0 31.73-14.142 31.846-31.632v-397.753h-126.3c-12.259 66.245-55.944 120.159-114.695 146.419l-1.262 0.504c25.431 21.611 41.46 53.622 41.46 89.376 0 1.952-0.048 3.892-0.142 5.821l0.011-0.272c-3.793 63.892-56.534 114.27-121.041 114.27-66.1 0-119.845-52.896-121.215-118.668l-0.002-0.128c-0.002-0.259-0.003-0.565-0.003-0.871 0-34.828 15.525-66.031 40.032-87.065l0.153-0.129c-62.117-26.431-107.584-81.36-120.344-147.913l-0.202-1.263h-134.349v146.842zM947.159 151.9h-871.383c-0.155-0.004-0.338-0.006-0.522-0.006-12.521 0-22.671 10.15-22.671 22.671 0 4.603 1.372 8.885 3.729 12.461l-0.053-0.085 113.664 77.988h681.984l113.664-77.988c2.735-3.616 4.381-8.189 4.381-13.145 0-12.103-9.811-21.914-21.914-21.914-0.309 0-0.616 0.006-0.922 0.019l0.044-0.001zM827.761 241.152h-631.501l-53.944-41.779c-2.223-1.606-3.653-4.191-3.653-7.11 0-4.83 3.915-8.745 8.745-8.745 0.226 0 0.45 0.009 0.672 0.025l-0.029-0.002h729.088c0.038-0.001 0.083-0.001 0.128-0.001 4.92 0 8.909 3.989 8.909 8.909 0 2.788-1.281 5.277-3.286 6.91l-0.016 0.013z" />
<glyph unicode="&#xe959;" glyph-name="your-plan" d="M273.818 457.4c0.001-0.080 0.001-0.174 0.001-0.268 0-16.198-13.051-29.349-29.211-29.51h-42.695c-16.176 0.161-29.226 13.312-29.226 29.51 0 0.094 0 0.188 0.001 0.282v-0.014 43.479c-0.001 0.080-0.001 0.174-0.001 0.268 0 16.198 13.051 29.349 29.211 29.51h42.675c16.176-0.161 29.226-13.312 29.226-29.51 0-0.094 0-0.188-0.001-0.282v0.014-43.479zM437.862 500.879c0.001 0.080 0.001 0.174 0.001 0.268 0 16.198-13.051 29.349-29.211 29.51h-42.675c-16.176-0.161-29.226-13.312-29.226-29.51 0-0.094 0-0.188 0.001-0.282v0.014-43.479c-0.001-0.080-0.001-0.174-0.001-0.268 0-16.198 13.051-29.349 29.211-29.51h42.675c15.934 0.467 28.673 13.496 28.673 29.5 0 0.098 0 0.195-0.001 0.293v-0.015zM529.49 427.151h42.66c16.176 0.161 29.226 13.312 29.226 29.51 0 0.094 0 0.188-0.001 0.282v-0.014 43.5c0.001 0.080 0.001 0.174 0.001 0.268 0 16.198-13.051 29.349-29.211 29.51h-42.675c-16.176-0.161-29.226-13.312-29.226-29.51 0-0.094 0-0.188 0.001-0.282v0.014-43.479c0.034-16.168 13.073-29.279 29.211-29.43h0.014v-0.328zM244.47 358.134h-42.66c-0.049 0-0.106 0-0.164 0-16.237 0-29.41-13.122-29.491-29.341v-0.008c0-0.143 0-0.287 0-0.43v-43.479c-0.001-0.080-0.001-0.174-0.001-0.268 0-16.198 13.051-29.349 29.211-29.51h42.675c0.086-0.001 0.187-0.001 0.288-0.001 16.19 0 29.331 13.056 29.47 29.213v0.013c0 0.184 0 0.369 0 0.553v43.52c0.001 0.080 0.001 0.174 0.001 0.268 0 16.198-13.051 29.349-29.211 29.51h-0.097zM408.515 358.134h-42.639c-0.049 0-0.106 0-0.164 0-16.237 0-29.41-13.122-29.491-29.341v-0.008c0-0.143 0-0.287 0-0.43v-43.479c-0.001-0.080-0.001-0.174-0.001-0.268 0-16.198 13.051-29.349 29.211-29.51h42.675c16.176 0.161 29.226 13.312 29.226 29.51 0 0.094 0 0.188-0.001 0.282v-0.014 43.52c0.001 0.082 0.001 0.178 0.001 0.275 0 16.047-12.808 29.103-28.759 29.502l-0.037 0.001zM92.16 73.769h399.688c-10.878 30.926-17.162 66.585-17.162 103.712 0 0.028 0 0.057 0 0.085v-0.004h-373.35v431.985h723.415v-116.49c37.925-4.819 72.326-15.895 103.55-32.217l-1.683 0.801v296.694c0.002 0.227 0.003 0.495 0.003 0.763 0 51.097-41.145 92.584-92.111 93.137h-97.864v70.636c0.001 0.080 0.001 0.174 0.001 0.268 0 20.223-16.284 36.643-36.455 36.862h-57.119c-20.192-0.219-36.476-16.639-36.476-36.862 0-0.109 0-0.217 0.001-0.326v0.017-70.615h-286.597v70.656c0.001 0.081 0.001 0.176 0.001 0.271 0 20.151-16.168 36.526-36.24 36.859h-57.375c-20.121-0.311-36.312-16.695-36.312-36.86 0-0.095 0-0.19 0.001-0.285v0.015-70.656h-97.915c-51.018-0.554-92.163-42.041-92.163-93.138 0-0.261 0.001-0.522 0.003-0.782v0.040-590.664c-0.002-0.227-0.003-0.495-0.003-0.763 0-51.097 41.145-92.584 92.111-93.137h0.052zM1024 177.562c-2.529-129.026-107.721-232.653-237.116-232.653-130.979 0-237.158 106.179-237.158 237.158s106.178 237.157 237.157 237.158v0c131.235-1.28 237.128-107.964 237.128-239.38 0-0.803-0.004-1.605-0.012-2.407l0.001 0.123zM890.45 111.043c0.003 0.181 0.005 0.395 0.005 0.609 0 10.381-4.065 19.813-10.691 26.79l0.016-0.017-54.436 55.439v86.016c0 21.004-17.027 38.031-38.031 38.031s-38.031-17.027-38.031-38.031v-118.395l76.698-78.131c6.778-6.758 16.131-10.936 26.46-10.936 10.721 0 20.391 4.502 27.222 11.718l0.016 0.017c6.657 6.984 10.758 16.457 10.772 26.887v0.003z" />
</font>
</defs>
</svg>
